<?xml version="1.0" encoding="UTF-8"?>
<svg id="Calque_1" xmlns="http://www.w3.org/2000/svg" version="1.1" viewBox="0 0 338.6 345.67">
  <!-- Generator: Adobe Illustrator 29.1.0, SVG Export Plug-In . SVG Version: 2.1.0 Build 142)  -->
  <defs>
    <style>
      .st0 {
        fill: #ffe85c;
      }

      .st1 {
        fill: #fff;
      }

      .st2 {
        fill: #a98052;
      }
    </style>
  </defs>
  <g>
    <path class="st0" d="M86.34,276.59l4.3-2.01c-.39,2.5-.94,5.36-1.64,8.58-.7,3.22-1.5,6.54-2.42,9.96s-1.77,6.27-2.56,8.56c-.87,2.66-1.79,5.16-2.78,7.51-.99,2.35-1.99,4.39-3.02,6.11s-2.14,3.3-3.35,4.73-2.48,2.69-3.82,3.77c-4.68,3.86-10.62,5.8-17.82,5.8-1.79,0-3.17-.16-4.14-.47l1.18-2.92c3.02.87,5.81,1.3,8.36,1.3,5.86,0,10.9-3.09,15.1-9.27,1.21-1.79,2.31-3.85,3.29-6.19.99-2.34,2.08-5.61,3.29-9.82.58-2,1.15-4.08,1.71-6.25.57-2.17,1.09-4.27,1.58-6.31s.99-4.25,1.5-6.62c.51-2.38.87-4.2,1.08-5.46l.16-.99ZM114.85,276.36l-28.86,31.5c.87,2.02,2.04,4.17,3.51,6.45,1.47,2.27,3.03,4.36,4.67,6.27,1.64,1.91,3.4,3.62,5.26,5.15l-2.8,2.64c-5.62-5.07-10.2-11.43-13.72-19.08l27.72-32.92h4.22Z"/>
    <path class="st0" d="M113.18,304.67l-3.47,12.97c-.58,2.13-.87,3.84-.87,5.13,0,.84.14,1.52.43,2.05.29.53.67.79,1.14.79.81,0,2.12-.97,3.9-2.92l.63.55-.39.43c-1.5,1.76-2.6,2.95-3.31,3.57-.71.62-1.37.93-1.97.93-.82,0-1.5-.41-2.07-1.24s-.85-1.86-.85-3.09c0-.79.16-2.04.47-3.75l2.48-13.8,3.86-1.62ZM114.33,289.21c.68,0,1.24.21,1.66.63.42.42.63.97.63,1.66s-.22,1.21-.67,1.66-.99.67-1.62.67-1.14-.24-1.62-.71c-.47-.47-.71-1.01-.71-1.62s.22-1.17.67-1.62,1-.67,1.66-.67Z"/>
    <path class="st0" d="M136.95,304.43l-6.03,24.01c-.61,2.58-1.14,4.47-1.6,5.68-.46,1.21-1.02,2.31-1.68,3.31-1.24,1.89-2.74,3.34-4.51,4.36s-3.69,1.52-5.74,1.52c-1.87,0-3.51-.53-4.93-1.58l2.01-2.6c1.71,1.63,3.4,2.44,5.09,2.44,1.08,0,2.17-.34,3.27-1.02,1.1-.68,1.92-1.53,2.44-2.52.68-1.21,1.39-3.4,2.13-6.58l3.04-13.01c-3.52,6.57-7.1,9.86-10.72,9.86-1.47,0-2.66-.56-3.57-1.68-.91-1.12-1.36-2.54-1.36-4.28,0-2.47.7-5.05,2.09-7.73,1.39-2.68,3.15-4.91,5.26-6.68,2.12-1.77,4.17-2.66,6.17-2.66,1.87,0,3.42.7,4.65,2.09l.36-1.38,3.63-1.54ZM132.53,309.32c-1.02-1.97-2.38-2.96-4.06-2.96s-3.5.97-5.21,2.92c-1.39,1.63-2.58,3.67-3.57,6.13-.99,2.46-1.48,4.66-1.48,6.6,0,1.31.28,2.35.85,3.09.56.75,1.36,1.12,2.38,1.12s2.21-.58,3.49-1.74c1.28-1.16,2.54-2.79,3.8-4.89,1.45-2.39,2.56-5.23,3.35-8.52l.43-1.77Z"/>
    <path class="st0" d="M159.57,304.43l-3.71,14.43c-.39,1.58-.59,2.81-.59,3.71,0,.79.17,1.47.51,2.05.34.58.76.87,1.26.87.76,0,2.02-.93,3.79-2.8l.55.55-.43.51c-1.39,1.6-2.46,2.73-3.21,3.37s-1.4.97-1.95.97c-.84,0-1.57-.44-2.19-1.32-.62-.88-.93-1.9-.93-3.06,0-.84.32-2.75.95-5.72l.32-1.5c-.97,2.26-2.27,4.43-3.9,6.51-2.73,3.47-5.35,5.2-7.85,5.2-1.5,0-2.68-.54-3.55-1.62-.87-1.08-1.3-2.52-1.3-4.34,0-2.47.7-5.06,2.11-7.77,1.41-2.71,3.15-4.93,5.24-6.68,2.09-1.75,4.12-2.62,6.09-2.62,2.08,0,3.63.76,4.65,2.29l.43-1.5,3.71-1.54ZM155.04,309.48c-.32-1-.85-1.78-1.6-2.35-.75-.57-1.61-.85-2.58-.85-1.16,0-2.38.53-3.67,1.6s-2.47,2.54-3.55,4.44c-.84,1.5-1.54,3.15-2.11,4.97s-.85,3.31-.85,4.5c0,1.34.26,2.39.77,3.15.51.76,1.24,1.14,2.19,1.14,1.21,0,2.47-.56,3.79-1.7,1.31-1.13,2.62-2.75,3.9-4.85.79-1.21,1.41-2.42,1.85-3.63.45-1.21.95-2.89,1.5-5.05l.36-1.38Z"/>
    <path class="st0" d="M176.36,272.18l-10.37,45.46-.36,1.54c-.34,1.45-.51,2.67-.51,3.67,0,.81.15,1.48.45,1.99.3.51.68.77,1.12.77.81,0,2.12-.97,3.9-2.92l.63.55-.39.43c-1.5,1.76-2.6,2.95-3.31,3.57s-1.37.93-1.97.93c-.79,0-1.48-.44-2.07-1.32-.59-.88-.89-1.89-.89-3.02,0-.79.17-2.04.51-3.75l9.11-45.89,4.14-2.01Z"/>
    <path class="st0" d="M179.07,304.67l-3.47,12.97c-.58,2.13-.87,3.84-.87,5.13,0,.84.14,1.52.43,2.05.29.53.67.79,1.14.79.81,0,2.12-.97,3.9-2.92l.63.55-.39.43c-1.5,1.76-2.6,2.95-3.31,3.57-.71.62-1.37.93-1.97.93-.82,0-1.5-.41-2.07-1.24s-.85-1.86-.85-3.09c0-.79.16-2.04.47-3.75l2.48-13.8,3.86-1.62ZM180.22,289.21c.68,0,1.23.21,1.66.63.42.42.63.97.63,1.66s-.22,1.21-.67,1.66-.99.67-1.62.67-1.14-.24-1.62-.71c-.47-.47-.71-1.01-.71-1.62s.22-1.17.67-1.62,1-.67,1.66-.67Z"/>
    <path class="st0" d="M212.45,320.52l-2.4,7.18c-1.21.24-2.5.35-3.86.35s-2.79-.09-4.42-.28c-2.94-.32-5.1-.47-6.47-.47-1.81,0-3.73.25-5.76.75v-1.1c1.71-1.16,3.56-2.51,5.56-4.06s4.1-3.29,6.31-5.2c2.21-1.97,3.95-3.73,5.22-5.28s2.21-3.06,2.8-4.51c.59-1.46.89-2.96.89-4.51,0-2.13-.55-3.83-1.64-5.11-1.09-1.27-2.54-1.91-4.36-1.91s-3.35.59-4.69,1.77-2.01,2.58-2.01,4.18c0,.79.22,1.49.65,2.11.43.62.99,1.03,1.68,1.24-.42.74-1.08,1.1-1.97,1.1s-1.58-.3-2.15-.91c-.57-.6-.85-1.37-.85-2.29,0-2.08,1.09-4,3.27-5.76,2.18-1.76,4.55-2.64,7.1-2.64s4.55.74,6.09,2.21c1.54,1.47,2.31,3.42,2.31,5.83,0,1.87-.44,3.62-1.32,5.24-.88,1.63-2.36,3.44-4.44,5.44-1.87,1.81-5.02,4.35-9.46,7.61-2.02,1.52-3.33,2.51-3.9,2.96,1.1-.18,2.25-.28,3.43-.28.95,0,1.85.04,2.72.12l3.19.24c.89.05,1.55.08,1.97.08,1.45,0,2.62-.32,3.51-.95.89-.63,1.7-1.68,2.41-3.15h.59Z"/>
    <path class="st0" d="M239.3,306.01c0,2.87-.56,5.88-1.68,9.05-1.12,3.17-2.6,5.87-4.44,8.1-2.89,3.5-5.95,5.24-9.19,5.24-2.5,0-4.51-1-6.05-3.02-1.54-2.01-2.31-4.7-2.31-8.06,0-3.05.64-6.22,1.91-9.5,1.27-3.29,2.99-6.14,5.15-8.56,2.42-2.71,5.1-4.06,8.04-4.06,2.52,0,4.58.99,6.17,2.98,1.59,1.98,2.38,4.59,2.38,7.83ZM235.87,303.84c0-2.47-.45-4.38-1.36-5.72s-2.18-2.01-3.8-2.01c-3.39,0-6.28,3.02-8.67,9.07-.97,2.5-1.74,5.05-2.29,7.67s-.83,4.9-.83,6.84c0,2.47.46,4.39,1.38,5.76.92,1.37,2.19,2.05,3.82,2.05s3.02-.66,4.34-1.97c1.31-1.31,2.6-3.38,3.86-6.19,1.1-2.42,1.97-5.03,2.6-7.83.63-2.8.95-5.36.95-7.67Z"/>
    <path class="st0" d="M259.63,320.52l-2.4,7.18c-1.21.24-2.5.35-3.86.35s-2.79-.09-4.42-.28c-2.94-.32-5.1-.47-6.47-.47-1.81,0-3.73.25-5.76.75v-1.1c1.71-1.16,3.56-2.51,5.56-4.06s4.1-3.29,6.31-5.2c2.21-1.97,3.95-3.73,5.22-5.28s2.21-3.06,2.8-4.51c.59-1.46.89-2.96.89-4.51,0-2.13-.55-3.83-1.64-5.11-1.09-1.27-2.54-1.91-4.36-1.91s-3.35.59-4.69,1.77-2.01,2.58-2.01,4.18c0,.79.22,1.49.65,2.11.43.62.99,1.03,1.68,1.24-.42.74-1.08,1.1-1.97,1.1s-1.58-.3-2.15-.91c-.57-.6-.85-1.37-.85-2.29,0-2.08,1.09-4,3.27-5.76,2.18-1.76,4.55-2.64,7.1-2.64s4.55.74,6.09,2.21c1.54,1.47,2.31,3.42,2.31,5.83,0,1.87-.44,3.62-1.32,5.24-.88,1.63-2.36,3.44-4.44,5.44-1.87,1.81-5.02,4.35-9.46,7.61-2.02,1.52-3.33,2.51-3.9,2.96,1.1-.18,2.25-.28,3.43-.28.95,0,1.85.04,2.72.12l3.19.24c.89.05,1.55.08,1.97.08,1.45,0,2.62-.32,3.51-.95.89-.63,1.7-1.68,2.41-3.15h.59Z"/>
    <path class="st0" d="M266.96,313.1c2.31-4.49,5.34-6.74,9.07-6.74,2.1,0,3.79.72,5.05,2.17s1.89,3.39,1.89,5.83c0,1.79-.34,3.53-1.03,5.22s-1.59,3.19-2.72,4.49c-1.13,1.3-2.44,2.35-3.92,3.15-1.49.8-2.99,1.2-4.51,1.2-2.5,0-4.45-.91-5.86-2.74s-2.11-4.38-2.11-7.67c0-2.68.49-5.41,1.46-8.18.97-2.77,2.26-5.24,3.86-7.41,1.6-2.17,3.43-3.9,5.48-5.2,2.05-1.3,4.09-1.95,6.11-1.95,1.45,0,2.63.37,3.55,1.1.92.74,1.38,1.68,1.38,2.84,0,.81-.29,1.54-.87,2.19-.58.64-1.29.97-2.13.97-.24,0-.45-.01-.63-.04.53-.92.79-1.83.79-2.72,0-1.05-.28-1.84-.83-2.37-.55-.53-1.35-.79-2.4-.79-1.68,0-3.31.7-4.87,2.11-1.56,1.41-2.95,3.4-4.16,5.97-.71,1.5-1.29,3.02-1.75,4.57s-.74,2.88-.85,3.98ZM266.01,321.03c0,4.34,1.56,6.51,4.69,6.51,1.45,0,2.84-.64,4.2-1.93,1.35-1.29,2.44-3.02,3.25-5.21.81-2.18,1.22-4.4,1.22-6.66,0-1.87-.38-3.29-1.12-4.28-.75-.99-1.85-1.48-3.29-1.48-2.31,0-4.3,1.17-5.95,3.51-.82,1.18-1.52,2.71-2.11,4.59-.59,1.88-.89,3.53-.89,4.95Z"/>
  </g>
  <g>
    <g>
      <path class="st1" d="M58.06,19.94l-26.94,118.27H5L55.11,19.94h2.96ZM28.82,105.35h75.73v3.29H28.82v-3.29ZM81.39,19.94l50.1,118.27h-26.12L55.11,19.94h26.28Z"/>
      <path class="st1" d="M164.34,56.07v82.13h-24.64V56.07h24.64ZM164.34,71.19v-3.29l63.74-11.83v24.48l-63.74-9.36Z"/>
      <path class="st1" d="M249.59,135.5c-3.51-1.81-6.43-5.36-8.79-10.68-2.36-5.31-3.81-14.37-4.35-27.19-.11-3.17-.16-6.41-.16-9.69v-31.87l22.5-24.64h3.45v106.77c-4.93,0-9.15-.9-12.65-2.71ZM319.57,56.07v3.29h-57.33v-3.29h57.33ZM262.24,135.58l57.33-24.64v27.27h-57.33v-2.63Z"/>
    </g>
    <g>
      <path class="st1" d="M17.49,232.42c-7.71-7.4-11.56-19.11-11.56-35.12s3.81-27.83,11.43-35.19c7.62-7.36,19.26-11.04,34.93-11.04h42.89v19.13l-43.02-16.57c-8.91,0-15.46,3.4-19.65,10.21-4.2,6.81-6.29,17.96-6.29,33.46,0,11.13,1.26,20.06,3.79,26.78,2.52,6.72,6.06,11.41,10.59,14.06,2.91,1.37,6.14,2.21,9.7,2.5,3.55.3,8.8.45,15.73.45,4.37-.08,7.88-.13,10.53-.13v-38.53h18.88v41.1h-42.89c-15.67,0-27.36-3.7-35.06-11.11Z"/>
      <path class="st1" d="M114.19,235.89c-7.36-5.86-11.04-14.58-11.04-26.13s3.79-19.2,11.37-24.21c7.58-5.01,18.77-7.51,33.58-7.51s26.01,2.5,33.58,7.51c7.58,5.01,11.37,13.08,11.37,24.21s-3.68,20.27-11.04,26.13c-7.36,5.87-18.67,8.8-33.91,8.8s-26.54-2.93-33.9-8.8ZM129.03,187.99c-4.41,4.92-6.61,12.18-6.61,21.77,0,12.84,2.57,21.49,7.71,25.94,5.14,4.45,11.13,6.68,17.98,6.68s12.84-2.22,17.98-6.68c5.14-4.45,7.71-13.1,7.71-25.94,0-9.59-2.21-16.84-6.61-21.77-4.41-4.92-10.77-7.38-19.07-7.38s-14.66,2.46-19.07,7.38Z"/>
      <path class="st1" d="M211.99,242.25c-2.36-.85-4.43-2.46-6.23-4.82-1.8-2.35-3.13-6.31-3.98-11.88-1.11-6.42-1.67-13.53-1.67-21.32v-53.17h20.29v92.47c-3.25,0-6.06-.43-8.41-1.28ZM219.63,240.96h24.14v2.57h-24.14v-2.57Z"/>
      <path class="st1" d="M315.95,158.13c-4.88-2.57-10.1-3.9-15.67-3.98h-1.16c-6.51-.17-12.46.73-17.85,2.7-5.39,1.97-8.09,6.38-8.09,13.23v73.46h-19.14v-73.33c0-7.79,4.43-13.01,13.29-15.67,8.86-2.65,19.84-3.64,32.94-2.95,5.82.34,11.41.94,16.76,1.8,5.35.86,9.7,1.76,13.04,2.7v12.59c-4.54-4.45-9.25-7.96-14.13-10.53ZM320.32,179.32v2.57h-53.68v-2.57h53.68Z"/>
    </g>
    <g>
      <path class="st2" d="M239.13,206.76c.97-1.18,2.05-2.37,3.23-3.57,1.18-1.2,2.46-2.27,3.83-3.23,1.37-.96,2.82-1.76,4.34-2.41,1.52-.65,3.12-1.02,4.81-1.11,1.33-.09,2.59.1,3.79.55s2.21,1.2,3.06,2.24c.84,1.03,1.45,2.36,1.82,3.99.37,1.62.41,3.56.11,5.8-.18,1.24-.41,2.5-.71,3.79-.29,1.28-.63,2.5-1.02,3.65-.38,1.15-.8,2.2-1.24,3.15s-.9,1.7-1.37,2.26c-.86,1.03-1.64,1.62-2.35,1.75-.71.13-1.26.02-1.66-.33-.4-.35-.58-.86-.53-1.53.04-.66.42-1.31,1.13-1.93.71-.44,1.4-1.03,2.06-1.77.67-.74,1.28-1.57,1.84-2.5.56-.93,1.04-1.91,1.44-2.95.4-1.03.7-2.08.91-3.15.32-1.8.32-3.37,0-4.72-.33-1.34-.87-2.46-1.64-3.34-.77-.89-1.73-1.53-2.88-1.93s-2.39-.55-3.72-.46c-1.54.12-2.98.49-4.34,1.11s-2.65,1.41-3.88,2.37-2.38,2.03-3.48,3.21c-1.09,1.18-2.13,2.39-3.1,3.63-1.68,2.13-3.43,4.62-5.25,7.49-1.82,2.87-3.54,5.94-5.18,9.24-1.64,3.29-3.13,6.73-4.47,10.3-1.34,3.57-2.4,7.14-3.17,10.7-.77,3.56-1.17,7.04-1.22,10.46-.04,3.41.42,6.58,1.4,9.5.5,1.56,1.13,2.91,1.88,4.03s1.59,2.04,2.52,2.75c.93.71,1.93,1.24,2.99,1.59,1.06.35,2.17.55,3.32.58,1.45.06,2.95-.1,4.52-.49,1.57-.38,3.15-.94,4.74-1.66,1.59-.72,3.17-1.57,4.74-2.55,1.56-.97,3.07-2.04,4.52-3.19,2.54-1.98,5.03-4.15,7.46-6.51,2.44-2.36,4.75-4.75,6.93-7.18,2.63-2.89,4.95-5.69,6.98-8.39s3.64-5.01,4.85-6.93c.35-.59.7-.95,1.04-1.06s.6-.08.78.11c.18.19.24.52.2.97-.04.46-.27.95-.69,1.48-1.57,2.3-3.34,4.75-5.32,7.33-1.98,2.58-4.12,5.21-6.42,7.86-2.39,2.78-4.9,5.44-7.51,8-2.61,2.55-5.31,4.83-8.08,6.84-1.33,1.06-2.75,2.04-4.27,2.95-1.52.9-3.09,1.67-4.7,2.3-1.61.63-3.23,1.14-4.87,1.51s-3.26.55-4.85.55c-2.75.03-5.26-.52-7.53-1.64s-4.19-2.97-5.76-5.54c-1.24-1.98-2.04-4.24-2.41-6.78-.37-2.54-.41-5.24-.13-8.11.28-2.87.85-5.84,1.71-8.93.86-3.08,1.9-6.17,3.12-9.26,1.22-3.09,2.59-6.13,4.1-9.13,1.51-3,3.04-5.84,4.61-8.53,1.57-2.69,3.12-5.16,4.67-7.42,1.55-2.26,2.99-4.2,4.32-5.83Z"/>
      <path class="st2" d="M283.07,236.44c-.15.5-.43,1.26-.84,2.26-.41,1-.86,2.07-1.35,3.19s-.95,2.23-1.37,3.32c-.43,1.09-.7,1.98-.82,2.66-.09.47-.08.8.02,1,.1.19.26.29.47.29s.45-.08.73-.24c.28-.16.54-.35.78-.55.65-.53,1.33-1.27,2.04-2.21.71-.94,1.38-1.89,2.01-2.83.63-.94,1.2-1.79,1.68-2.55s.82-1.22,1-1.4c.5-.41,1.02-.63,1.55-.66.53-.03,1,.07,1.4.29.4.22.67.55.82.97.15.43.1.89-.13,1.4-1.12,2.33-1.68,4.22-1.68,5.65s.52,2.27,1.55,2.5c.71.06,1.48-.07,2.3-.4.83-.33,1.68-.78,2.55-1.35s1.74-1.24,2.59-1.99,1.68-1.52,2.48-2.3c.8-.78,1.54-1.56,2.21-2.33s1.27-1.46,1.77-2.08c.29-.41.62-.68.97-.8.35-.12.64-.12.86,0,.22.12.32.35.29.69-.03.34-.27.75-.71,1.22-.95,1.15-2.03,2.39-3.26,3.72s-2.53,2.55-3.92,3.68c-1.39,1.12-2.85,2.04-4.39,2.77-1.54.72-3.1,1.04-4.7.95-1-.06-1.81-.28-2.41-.66-.61-.38-1.04-.87-1.31-1.46-.27-.59-.36-1.26-.29-2.02.07-.75.3-1.56.69-2.41-.68.86-1.38,1.71-2.1,2.57s-1.48,1.59-2.26,2.19c-.78.61-1.6,1.02-2.46,1.24-.86.22-1.73.11-2.61-.33-.62-.29-1.08-.69-1.37-1.2-.29-.5-.5-1.06-.6-1.66-.1-.6-.12-1.21-.07-1.82.06-.6.15-1.17.27-1.71.21-.97.48-1.93.82-2.88.34-.95.69-1.84,1.06-2.68s.73-1.59,1.08-2.26c.35-.67.68-1.2.97-1.62.44-.59.92-.97,1.42-1.13.5-.16.95-.14,1.35.07.4.21.69.56.89,1.06.19.5.2,1.12.02,1.86Z"/>
      <path class="st2" d="M319.04,244.85c-1,1.65-2.1,2.93-3.3,3.83-1.2.9-2.3,1.49-3.32,1.77-1.02.28-1.85.3-2.48.04s-.9-.67-.8-1.26c.1-.59.67-1.31,1.71-2.15,1.03-.84,2.72-1.74,5.05-2.68.18-.32.35-.77.53-1.33.18-.56.32-1.14.44-1.73.12-.59.17-1.15.16-1.68-.02-.53-.13-.95-.33-1.24-.21-.29-.54-.41-1-.35s-1.08.38-1.88.97c-.92.71-1.9,1.69-2.95,2.95-1.05,1.26-2.1,2.71-3.17,4.36-1.06,1.65-2.08,3.44-3.06,5.36s-1.85,3.89-2.61,5.91c-.77,2.02-1.39,4.05-1.86,6.09-.47,2.04-.72,3.97-.75,5.8-.06,2.19.27,4.16.97,5.94.71,1.77,1.9,3.2,3.59,4.3.53.35.78.73.75,1.13-.03.4-.23.7-.6.91s-.85.26-1.44.16-1.2-.48-1.82-1.13c-.89-1-1.59-2.45-2.13-4.34-.53-1.89-.77-4.03-.71-6.42.09-2.66.36-5.63.82-8.9s1.1-6.61,1.93-9.99c.83-3.38,1.84-6.66,3.03-9.83,1.2-3.17,2.59-5.97,4.19-8.39.38-.62.86-1,1.42-1.15.56-.15,1.07-.14,1.53.02.46.16.8.43,1.04.8.24.37.22.77-.04,1.22-.83,1.45-1.83,3.38-3.01,5.8-1.18,2.42-2.36,5.11-3.54,8.06.24-.35.56-.9.97-1.64.41-.74.91-1.56,1.48-2.46.58-.9,1.22-1.83,1.93-2.79.71-.96,1.48-1.84,2.3-2.66s1.71-1.5,2.64-2.06c.93-.56,1.9-.9,2.9-1.02,1.74-.18,2.86.44,3.34,1.84s.26,3.34-.69,5.83c2.13-.74,4.21-1.39,6.25-1.95s3.93-1.14,5.67-1.73c.71-.27,1.22-.33,1.53-.18.31.15.49.36.53.64.04.28-.02.57-.2.86-.18.3-.4.47-.67.53-.97.24-2.04.48-3.21.73-1.17.25-2.37.53-3.61.84-1.24.31-2.5.66-3.79,1.04-1.28.38-2.53.83-3.74,1.33Z"/>
    </g>
    <g>
      <path class="st1" d="M120.98,9.8c-1.68-.88-3.48-1.34-5.39-1.37h-.4c-2.24-.06-4.28.25-6.14.93-1.86.68-2.78,2.19-2.78,4.55v25.26h-6.58V13.95c0-2.68,1.52-4.48,4.57-5.39,3.05-.91,6.82-1.25,11.33-1.02,2,.12,3.92.32,5.76.62,1.84.29,3.33.6,4.48.93v4.33c-1.56-1.53-3.18-2.74-4.86-3.62ZM122.48,17.08v.88h-18.46v-.88h18.46Z"/>
      <path class="st1" d="M134.67,17.08v22.08h-6.63v-22.08h6.63ZM134.67,21.15v-.88l17.14-3.18v6.58l-17.14-2.52Z"/>
      <path class="st1" d="M168.15,38.29v.88h-14.13v-.88h14.13ZM164.4,17.08v22.08h-6.63v-22.08h6.63ZM158.63,13.42c-.54-.53-.82-1.46-.82-2.78s.27-2.2.82-2.72c.54-.51,1.36-.77,2.45-.77s1.91.26,2.45.77c.54.52.82,1.42.82,2.72s-.27,2.25-.82,2.78c-.54.53-1.36.8-2.45.8s-1.91-.27-2.45-.8Z"/>
      <path class="st1" d="M193.95,34.53v4.64h-7.69c-5.27,0-9.17-.95-11.68-2.85s-3.78-4.82-3.78-8.77c0-2.59.54-4.65,1.63-6.18,1.09-1.53,2.76-2.63,5.01-3.29,2.25-.66,5.19-.99,8.81-.99h7.69v4.68l-7.69-3.8c-1.97,0-3.6.31-4.88.93s-2.26,1.63-2.94,3.05c-.68,1.41-1.02,3.28-1.02,5.61,0,2.74.35,4.91,1.04,6.51.69,1.61,1.69,2.72,3,3.36,1.31.63,2.91.95,4.79.95l7.69-3.84Z"/>
      <path class="st1" d="M213.6,27.27c-2.47.46-4.57,1.08-6.29,1.86s-2.78,1.79-3.16,3.03c-.12.29-.18.6-.18.93,0,1.41.66,2.49,1.97,3.22,1.31.74,2.92,1.25,4.84,1.52,1.91.28,4.46.43,7.64.46h2.83v.88l-3.98.04c-4,.03-7.39-.06-10.16-.26-2.77-.21-5.15-.71-7.13-1.52-1.99-.81-2.98-2.05-2.98-3.73,0-1.83,1.29-3.35,3.86-4.57,2.58-1.22,5.73-2.12,9.47-2.69,3.74-.57,7.38-.86,10.91-.86v.88c-2.62.09-5.17.36-7.64.82ZM203.68,17.35c1.84-.29,3.76-.5,5.76-.62,4.74-.27,8.99.07,12.74,1.02,3.75.94,5.63,2.74,5.63,5.39v16.03h-6.58v-16.08c0-1.65-.63-2.86-1.9-3.64-1.27-.78-2.79-1.3-4.57-1.57-1.78-.27-3.56-.35-5.32-.27-1.15.03-2.29.31-3.42.84-1.13.53-2.3,1.31-3.51,2.34-1.33,1.06-2.43,1.87-3.31,2.43v-4.95c1.15-.32,2.64-.63,4.48-.93Z"/>
    </g>
  </g>
</svg>