<?xml version="1.0" encoding="UTF-8"?>
<svg id="Calque_1" xmlns="http://www.w3.org/2000/svg" version="1.1" viewBox="0 0 63.17 97.21">
  <!-- Generator: Adobe Illustrator 29.1.0, SVG Export Plug-In . SVG Version: 2.1.0 Build 142)  -->
  <defs>
    <style>
      .st0 {
        fill: #fff;
      }
    </style>
  </defs>
  <path class="st0" d="M34.15,73.52c-3.46-4.18-.37-5.24.64-13.27.04-.3.03-.61-.01-.91-2.83-17.85-20.04-6.68-20.04-6.68C-7.37,67.45,2.51,88.32,3.85,92.63c1.34,4.31,2.48,5.53,2.38,1.17-1.94-21.64,9.36-28.28,14.8-30.53,1.09-.45,2.26.43,2.12,1.6-1.3,11.01,6.46,14.91,14.16,18.29,8.27,3.63,1.65,9.89,1.65,9.89l4.9-3.47c4.9-3.47-6.18-11.8-9.71-16.06Z"/>
  <path class="st0" d="M62.52,31.1s-.39-1.37-1.88-2.06c-1.49-.7-2.11-1-2.11-1,0,0-.46-.2-.59-.16-.05-.01-.08-.04-.19.02l-12.59-6.85c.02-.21-.09-.43-.42-.61,1.16-.4,1.28-.76,1.28-.76,0,0,1.64,1.48,2.23-.7.36-2.57-.91-4.03-.91-4.03,0,0,.06-4.91-3.94-6.42-2.46-.93-3.97-.61-5.29,0-1.58.72-2.98,1.78-4.09,3.12-.62.75-.98,1.33-.98,1.33,0,0-.87-1.05-1.51.8l-2.44-1.28-10.24-5.02-.05-.28s-1.48-.91-3.42-1.82C13.43,4.49,5.98.85,5.98.85c0,0-.46-.38-.9-.48-.29.13-1.22,1.33-.98,2.05.2.1.37.2.51.28l4,30.25c1.04,7.84,9.66,12.15,16.55,8.29l1.66-.93c6.7-3.76,7.7-13.01,1.96-18.11L8.92,4.55l5.42,2.29,3.81,1.7.24-.16,11.05,5.44,1.86.92c-.32,1.83-.77,4.42.23,6.24.92,1.68,1.26,2.58,5.41,4.07,2.05.74,4.37.1,5.68-1.65.01-.02.03-.03.04-.05,1.05-1,1-1.02,1.59-1.32.19-.1.41-.25.58-.42l12.73,6.74s0,.1.33.3c.33.19,1.74,1.03,1.74,1.03,0,0,.16.13.24.37.01.27-.08,2.58.6,4.24.47,1.45,1.36.78,1.36.78,0,0,.81-.42.93-1.86s-.24-2.1-.24-2.1ZM23.13,26.76c.98,1.42-.1,3.75-2.38,5.13h0c-2.47,1.5-5.22,1.22-5.8-.59L6.24,5.41c-.49-1.12-.76-1.9-.83-2.34l.99.42c.26.34.58.77.94,1.32l15.8,21.96Z"/>
</svg>