<?xml version="1.0" encoding="UTF-8"?>
<svg id="Calque_1" xmlns="http://www.w3.org/2000/svg" version="1.1" viewBox="0 0 86.14 70.23">
  <!-- Generator: Adobe Illustrator 29.1.0, SVG Export Plug-In . SVG Version: 2.1.0 Build 142)  -->
  <defs>
    <style>
      .st0 {
        fill: #aa8053;
      }

      .st1 {
        fill: none;
        stroke: #f9f3ed;
        stroke-miterlimit: 10;
      }

      .st2 {
        fill: #3d3c3b;
      }

      .st3 {
        fill: #fff;
      }

      .st4 {
        fill: #f9f3ed;
      }
    </style>
  </defs>
  <path class="st3" d="M80.9,47.64c0-.33.06-.63.19-.92.12-.29.29-.54.51-.75s.46-.38.75-.5.59-.19.92-.19.63.06.92.19c.29.12.54.29.75.5s.38.46.51.75c.12.29.19.59.19.92s-.06.63-.19.91-.29.53-.51.74c-.21.21-.46.38-.75.5s-.59.18-.92.18-.63-.06-.92-.18-.54-.29-.75-.5-.38-.46-.51-.74-.19-.59-.19-.91ZM81.27,47.64c0,.27.05.53.16.77.1.24.25.46.43.64s.39.33.63.43.5.16.78.16.54-.05.78-.16c.24-.1.45-.25.63-.43s.32-.4.42-.64c.1-.24.16-.5.16-.77s-.05-.54-.16-.78c-.1-.24-.25-.45-.42-.63s-.39-.32-.63-.42-.5-.16-.78-.16-.54.05-.78.16c-.24.1-.45.25-.63.42s-.32.39-.43.63c-.1.24-.16.5-.16.78ZM82.34,46.3h.93c.12,0,.25,0,.36.04.12.03.22.07.32.13.09.06.17.14.22.24.06.1.08.22.08.36,0,.19-.06.35-.17.47-.11.12-.26.2-.45.24l.72,1.16h-.58l-.62-1.11h-.34v1.11h-.48v-2.65h0ZM83.2,47.46c.14,0,.27-.03.39-.08s.19-.16.19-.32c0-.15-.06-.24-.17-.29s-.23-.07-.36-.07h-.44v.76h.39Z"/>
  <g>
    <path class="st4" d="M18.66,3.62l-6.14,26.93h-5.95L17.98,3.62h.68ZM12,23.08h17.25v.75H12v-.75ZM23.97,3.62l11.41,26.93h-5.95L17.98,3.62h5.99Z"/>
    <path class="st4" d="M42.86,11.85v18.7h-5.61V11.85h5.61ZM42.86,15.29v-.75l14.51-2.69v5.57l-14.51-2.13Z"/>
    <path class="st4" d="M62.27,29.94c-.8-.41-1.47-1.22-2-2.43-.54-1.21-.87-3.27-.99-6.19-.02-.72-.04-1.46-.04-2.21v-7.26l5.12-5.61h.79v24.32c-1.12,0-2.08-.21-2.88-.62ZM78.21,11.85v.75h-13.06v-.75h13.06ZM65.15,29.96l13.06-5.61v6.21h-13.06s0-.6,0-.6Z"/>
  </g>
  <g>
    <path class="st4" d="M9.42,52.01c-1.75-1.69-2.63-4.35-2.63-8s.87-6.34,2.6-8.01c1.73-1.68,4.39-2.52,7.96-2.52h9.77v4.36l-9.8-3.77c-2.03,0-3.52.78-4.47,2.33-.96,1.55-1.43,4.09-1.43,7.62,0,2.53.29,4.57.86,6.1s1.38,2.6,2.41,3.2c.66.31,1.4.5,2.21.57s2,.1,3.58.1c.99-.02,1.79-.03,2.4-.03v-8.77h4.3v9.36h-9.77c-3.57,0-6.23-.84-7.98-2.53h-.01Z"/>
    <path class="st4" d="M31.44,52.8c-1.68-1.33-2.52-3.32-2.52-5.95s.86-4.37,2.59-5.51c1.73-1.14,4.27-1.71,7.65-1.71s5.92.57,7.65,1.71,2.59,2.98,2.59,5.51-.84,4.62-2.52,5.95c-1.68,1.34-4.25,2-7.72,2s-6.04-.67-7.72-2ZM34.82,41.89c-1,1.12-1.51,2.77-1.51,4.96,0,2.92.58,4.89,1.75,5.91,1.17,1.01,2.53,1.52,4.09,1.52s2.92-.51,4.09-1.52c1.17-1.01,1.75-2.98,1.75-5.91,0-2.18-.5-3.84-1.51-4.96-1-1.12-2.45-1.68-4.34-1.68s-3.34.56-4.34,1.68h.02Z"/>
    <path class="st4" d="M53.71,54.25c-.54-.2-1.01-.56-1.42-1.1-.41-.54-.71-1.44-.91-2.71-.25-1.46-.38-3.08-.38-4.85v-12.11h4.62v21.06c-.74,0-1.38-.1-1.92-.29h0ZM55.45,53.96h5.5v.58h-5.5v-.58Z"/>
    <path class="st4" d="M77.39,35.09c-1.11-.58-2.3-.89-3.57-.91h-.26c-1.48-.04-2.84.17-4.07.61-1.23.45-1.84,1.45-1.84,3.01v16.73h-4.36v-16.7c0-1.77,1.01-2.96,3.03-3.57s4.52-.83,7.5-.67c1.33.08,2.6.21,3.82.41s2.21.4,2.97.61v2.87c-1.03-1.01-2.11-1.81-3.22-2.4h0ZM78.38,39.92v.58h-12.23v-.58h12.23Z"/>
  </g>
  <g>
    <path class="st0" d="M59.89,46.17c.22-.27.47-.54.74-.81s.56-.52.87-.74c.31-.22.64-.4.99-.55.35-.15.71-.23,1.09-.25.3-.02.59.02.86.13s.5.27.7.51c.19.24.33.54.41.91s.09.81.02,1.32c-.04.28-.09.57-.16.86-.07.29-.15.57-.23.83-.09.26-.18.5-.28.72-.1.21-.21.39-.31.51-.2.24-.37.37-.53.4-.16.03-.29,0-.38-.08s-.13-.2-.12-.35.1-.3.26-.44c.16-.1.32-.24.47-.4.15-.17.29-.36.42-.57s.24-.44.33-.67.16-.47.21-.72c.07-.41.07-.77,0-1.07-.07-.31-.2-.56-.37-.76s-.39-.35-.66-.44c-.26-.09-.54-.13-.85-.11-.35.03-.68.11-.99.25s-.6.32-.88.54c-.28.22-.54.46-.79.73s-.48.54-.71.83c-.38.48-.78,1.05-1.2,1.71s-.81,1.35-1.18,2.1-.71,1.53-1.02,2.35c-.31.81-.55,1.62-.72,2.44s-.27,1.6-.28,2.38c0,.78.1,1.5.32,2.16.11.36.26.66.43.92.17.26.36.46.57.63.21.16.44.28.68.36s.49.12.76.13c.33,0,.67-.02,1.03-.11s.72-.21,1.08-.38c.36-.17.72-.36,1.08-.58s.7-.46,1.03-.73c.58-.45,1.15-.95,1.7-1.48.55-.54,1.08-1.08,1.58-1.63.6-.66,1.13-1.3,1.59-1.91.46-.62.83-1.14,1.1-1.58.08-.13.16-.22.24-.24.08-.03.14-.02.18.03.04.04.06.12.04.22,0,.1-.06.22-.16.34-.36.52-.76,1.08-1.21,1.67-.45.59-.94,1.18-1.46,1.79-.54.63-1.11,1.24-1.71,1.82-.6.58-1.21,1.1-1.84,1.56-.3.24-.63.47-.97.67-.35.21-.7.38-1.07.52s-.74.26-1.11.34-.74.13-1.1.13c-.63,0-1.2-.12-1.71-.37-.52-.26-.96-.68-1.31-1.26-.28-.45-.47-.97-.55-1.54s-.09-1.19-.03-1.85.19-1.33.39-2.03c.2-.7.43-1.41.71-2.11s.59-1.4.93-2.08c.34-.68.69-1.33,1.05-1.94.36-.61.71-1.18,1.06-1.69.35-.51.68-.96.98-1.33h0Z"/>
    <path class="st0" d="M69.9,52.93c-.03.11-.1.29-.19.51s-.2.47-.31.73-.22.51-.31.76c-.1.25-.16.45-.19.6-.02.11-.02.18,0,.23.02.04.06.07.11.07s.1-.02.17-.06.12-.08.18-.13c.15-.12.3-.29.46-.5.16-.22.31-.43.46-.65.14-.21.27-.41.38-.58.11-.17.19-.28.23-.32.11-.09.23-.14.35-.15s.23.02.32.07.15.12.19.22c.03.1.02.2-.03.32-.26.53-.38.96-.38,1.29s.12.52.35.57c.16,0,.34-.02.52-.09.19-.07.38-.18.58-.31.2-.13.4-.28.59-.45.2-.17.38-.35.56-.52.18-.18.35-.36.5-.53s.29-.33.4-.47c.07-.09.14-.16.22-.18.08-.03.15-.03.2,0,.05.03.07.08.07.16s-.06.17-.16.28c-.22.26-.46.54-.74.85-.28.3-.58.58-.89.84-.32.26-.65.47-1,.63-.35.17-.71.24-1.07.22-.23,0-.41-.06-.55-.15s-.24-.2-.3-.33-.08-.29-.07-.46c.02-.17.07-.35.16-.55-.15.2-.31.39-.48.58-.17.2-.34.36-.51.5-.18.14-.36.23-.56.28-.19.05-.39.03-.6-.08-.14-.07-.25-.16-.31-.27s-.11-.24-.14-.38-.03-.28-.02-.41c.01-.14.03-.27.06-.39.05-.22.11-.44.19-.66.08-.21.16-.42.24-.61.08-.19.17-.36.25-.51s.15-.27.22-.37c.1-.13.21-.22.32-.26.11-.04.22-.03.31,0,.09.05.16.13.2.24.04.12.05.26,0,.42h.02Z"/>
    <path class="st0" d="M78.09,54.84c-.23.38-.48.67-.75.87s-.52.34-.76.4c-.23.06-.42.07-.56,0-.14-.06-.21-.15-.18-.29.02-.13.15-.3.39-.49.24-.19.62-.4,1.15-.61.04-.07.08-.17.12-.3s.07-.26.1-.39.04-.26.04-.38-.03-.21-.08-.28-.12-.09-.23-.08c-.1,0-.25.09-.43.22-.21.16-.43.38-.67.67-.24.29-.48.62-.72.99-.24.38-.47.78-.7,1.22-.22.44-.42.89-.6,1.35-.17.46-.32.92-.42,1.39-.11.46-.17.9-.17,1.32-.01.5.06.95.22,1.35s.43.73.82.98c.12.08.18.17.17.26s-.05.16-.14.21-.19.06-.33.04c-.13-.02-.27-.11-.41-.26-.2-.23-.36-.56-.48-.99s-.17-.92-.16-1.46c.02-.61.08-1.28.19-2.03.1-.75.25-1.5.44-2.27s.42-1.52.69-2.24c.27-.72.59-1.36.95-1.91.09-.14.19-.23.32-.26s.24-.03.35,0c.1.04.18.1.24.18s.05.18-.01.28c-.19.33-.42.77-.69,1.32s-.54,1.16-.81,1.84c.05-.08.13-.21.22-.37s.21-.35.34-.56c.13-.21.28-.42.44-.64s.34-.42.52-.61c.19-.18.39-.34.6-.47s.43-.21.66-.23c.4-.04.65.1.76.42s.06.76-.16,1.33c.48-.17.96-.32,1.42-.44.46-.13.89-.26,1.29-.39.16-.06.28-.07.35-.04s.11.08.12.15c.01.06,0,.13-.05.2s-.09.11-.15.12c-.22.05-.47.11-.73.17-.27.06-.54.12-.82.19s-.57.15-.86.24-.58.19-.85.3v-.02Z"/>
  </g>
  <g>
    <path class="st4" d="M32.98,1.31c-.38-.2-.79-.31-1.23-.31h-.09c-.51,0-.98.06-1.4.21s-.63.5-.63,1.04v5.75h-1.5V2.26c0-.61.35-1.02,1.04-1.23.69-.21,1.55-.29,2.58-.23.46.03.89.07,1.31.14.42.07.76.14,1.02.21v.99c-.36-.35-.72-.62-1.11-.82h0ZM33.32,2.97v.2h-4.2v-.2h4.2Z"/>
    <path class="st4" d="M36.1,2.97v5.03h-1.51V2.97h1.51ZM36.1,3.9v-.2l3.9-.72v1.5l-3.9-.57h0Z"/>
    <path class="st4" d="M43.73,7.8v.2h-3.22v-.2h3.22ZM42.87,2.97v5.03h-1.51V2.97h1.51ZM41.56,2.14c-.12-.12-.19-.33-.19-.63s.06-.5.19-.62c.12-.12.31-.18.56-.18s.43.06.56.18.19.32.19.62-.06.51-.19.63c-.12.12-.31.18-.56.18s-.43-.06-.56-.18Z"/>
    <path class="st4" d="M49.6,6.95v1.06h-1.75c-1.2,0-2.09-.22-2.66-.65-.57-.43-.86-1.1-.86-2,0-.59.12-1.06.37-1.41s.63-.6,1.14-.75,1.18-.23,2.01-.23h1.75v1.07l-1.75-.87c-.45,0-.82.07-1.11.21s-.51.37-.67.69c-.15.32-.23.75-.23,1.28,0,.62.08,1.12.24,1.48.16.37.39.62.68.76.3.14.66.22,1.09.22l1.75-.88v.02Z"/>
    <path class="st4" d="M54.08,5.29c-.56.1-1.04.25-1.43.42-.39.18-.63.41-.72.69-.03.07-.04.14-.04.21,0,.32.15.57.45.73.3.17.67.28,1.1.35s1.02.1,1.74.11h.64v.2h-.91c-.91.02-1.68,0-2.31-.05s-1.17-.16-1.62-.35c-.45-.18-.68-.47-.68-.85,0-.42.29-.76.88-1.04.59-.28,1.31-.48,2.16-.61s1.68-.2,2.48-.2v.2c-.6.02-1.18.08-1.74.19ZM51.82,3.03c.42-.07.86-.11,1.31-.14,1.08-.06,2.05.02,2.9.23.85.21,1.28.62,1.28,1.23v3.65h-1.5v-3.66c0-.38-.14-.65-.43-.83-.29-.18-.64-.3-1.04-.36-.41-.06-.81-.08-1.21-.06-.26,0-.52.07-.78.19-.26.12-.52.3-.8.53-.3.24-.55.43-.75.55v-1.13c.26-.07.6-.14,1.02-.21h0Z"/>
  </g>
  <path class="st2" d="M4.14,69.31s-.39.09-.44-.11c-.05-.2.31-1.75-.2-1.98s-.97-.09-.97-.09v2.14s-.12.16-.38.01v-2.18s-.69-.04-1.15.08v2.05s-.08.17-.36,0v-2.18c0-.1.07-.19.16-.21.32-.08,1.04-.16,1.82-.11.81.05,1.54.27,1.54.97s-.03,1.6-.03,1.6"/>
  <path class="st2" d="M5.42,66.78s.39-.09.44.11-.31,1.75.2,1.98.97.09.97.09v-2.14s.12-.16.38-.01v2.18s.69.04,1.15-.08v-2.05s.08-.17.36,0v2.18c0,.1-.07.19-.16.21-.32.08-1.04.16-1.82.11-.81-.05-1.54-.27-1.54-.97s.03-1.6.03-1.6"/>
  <path class="st2" d="M13.55,69.31s-.39.09-.44-.11c-.05-.2.31-1.75-.2-1.98s-.97-.09-.97-.09v2.14s-.12.16-.38.01v-2.18s-.69-.04-1.15.08v2.05s-.08.17-.36,0v-2.18c0-.1.07-.19.16-.21.32-.08,1.04-.16,1.82-.11.81.05,1.54.27,1.54.97s-.03,1.6-.03,1.6"/>
  <path class="st2" d="M14.83,66.78s.39-.09.44.11c.05.2-.31,1.75.2,1.98s.97.09.97.09v-2.14s.12-.16.38-.01v2.18s.69.04,1.15-.08v-2.05s.08-.17.36,0v2.18c0,.1-.07.19-.16.21-.32.08-1.04.16-1.82.11-.81-.05-1.54-.27-1.54-.97s.03-1.6.03-1.6"/>
  <path class="st2" d="M22.95,69.31s-.39.09-.44-.11c-.05-.2.31-1.75-.2-1.98s-.97-.09-.97-.09v2.14s-.12.16-.38.01v-2.18s-.69-.04-1.15.08v2.05s-.08.17-.36,0v-2.18c0-.1.07-.19.16-.21.32-.08,1.04-.16,1.82-.11.81.05,1.54.27,1.54.97s-.03,1.6-.03,1.6"/>
  <path class="st2" d="M24.23,66.78s.39-.09.44.11c.05.2-.31,1.75.2,1.98s.97.09.97.09v-2.14s.12-.16.38-.01v2.18s.69.04,1.15-.08v-2.05s.08-.17.36,0v2.18c0,.1-.07.19-.16.21-.32.08-1.04.16-1.82.11-.81-.05-1.54-.27-1.54-.97s.03-1.6.03-1.6"/>
  <path class="st2" d="M32.36,69.31s-.39.09-.44-.11c-.05-.2.31-1.75-.2-1.98s-.97-.09-.97-.09v2.14s-.12.16-.38.01v-2.18s-.69-.04-1.15.08v2.05s-.08.17-.36,0v-2.18c0-.1.07-.19.16-.21.32-.08,1.04-.16,1.82-.11.81.05,1.54.27,1.54.97s-.03,1.6-.03,1.6"/>
  <path class="st2" d="M33.64,66.78s.39-.09.44.11-.31,1.75.2,1.98c.51.23.97.09.97.09v-2.14s.12-.16.38-.01v2.18s.69.04,1.15-.08v-2.05s.08-.17.36,0v2.18c0,.1-.07.19-.16.21-.32.08-1.04.16-1.82.11-.81-.05-1.54-.27-1.54-.97s.03-1.6.03-1.6"/>
  <path class="st2" d="M41.76,69.31s-.39.09-.44-.11.31-1.75-.2-1.98c-.51-.23-.97-.09-.97-.09v2.14s-.12.16-.38.01v-2.18s-.69-.04-1.15.08v2.05s-.08.17-.36,0v-2.18c0-.1.07-.19.16-.21.32-.08,1.04-.16,1.82-.11.81.05,1.54.27,1.54.97s-.03,1.6-.03,1.6"/>
  <path class="st2" d="M43.04,66.78s.39-.09.44.11-.31,1.75.2,1.98c.51.23.97.09.97.09v-2.14s.12-.16.38-.01v2.18s.69.04,1.15-.08v-2.05s.08-.17.36,0v2.18c0,.1-.07.19-.16.21-.32.08-1.04.16-1.82.11-.81-.05-1.54-.27-1.54-.97s.03-1.6.03-1.6"/>
  <path class="st2" d="M51.17,69.31s-.39.09-.44-.11.31-1.75-.2-1.98c-.51-.23-.97-.09-.97-.09v2.14s-.12.16-.38.01v-2.18s-.69-.04-1.15.08v2.05s-.08.17-.36,0v-2.18c0-.1.07-.19.16-.21.32-.08,1.04-.16,1.82-.11.81.05,1.54.27,1.54.97s-.03,1.6-.03,1.6"/>
  <path class="st2" d="M52.45,66.78s.39-.09.44.11-.31,1.75.2,1.98c.51.23.97.09.97.09v-2.14s.12-.16.38-.01v2.18s.69.04,1.15-.08v-2.05s.08-.17.36,0v2.18c0,.1-.07.19-.16.21-.32.08-1.04.16-1.82.11-.81-.05-1.54-.27-1.54-.97s.03-1.6.03-1.6"/>
  <path class="st2" d="M60.57,69.31s-.39.09-.44-.11.31-1.75-.2-1.98c-.51-.23-.97-.09-.97-.09v2.14s-.12.16-.38.01v-2.18s-.69-.04-1.15.08v2.05s-.08.17-.36,0v-2.18c0-.1.07-.19.16-.21.32-.08,1.04-.16,1.82-.11.81.05,1.54.27,1.54.97s-.03,1.6-.03,1.6"/>
  <g>
    <path class="st4" d="M63.12,69.08v-2.54h.11v1.02c.15-.22.39-.36.66-.36.5,0,.82.39.82.97s-.33.96-.82.96c-.29,0-.54-.16-.66-.35v.31h-.11ZM63.9,69.02c.45,0,.7-.38.7-.86s-.25-.87-.7-.87c-.29,0-.55.18-.66.37v.99c.11.19.38.37.66.37Z"/>
    <path class="st4" d="M65.17,69.7s.11.03.16.03c.12,0,.21-.05.29-.25l.17-.38-.79-1.85h.13l.73,1.71.72-1.71h.13l-.98,2.28c-.09.2-.22.31-.4.31-.06,0-.14-.01-.18-.03,0,0,.02-.11.02-.11Z"/>
  </g>
  <polygon class="st4" points="68.45 67.14 69.31 68.45 69.35 68.45 70.21 67.14 70.4 67.14 70.4 69.11 70.2 69.11 70.2 67.52 69.43 68.67 69.24 68.67 68.47 67.52 68.47 69.11 68.27 69.11 68.28 67.14 68.45 67.14"/>
  <polygon class="st4" points="73.16 69.08 73.36 69.08 73.36 67.48 74.81 69.08 74.97 69.08 74.97 67.14 74.75 67.14 74.75 68.75 73.33 67.14 73.17 67.14 73.16 69.08"/>
  <path class="st4" d="M72.67,68.83s-.58.19-1.11.03c-.51-.15-.6-1.03-.28-1.4.36-.42,1.39-.11,1.39-.11v-.21s-.59-.09-.83-.07c-.24.03-.84.05-.92.74-.07.68.17,1.1.61,1.23.44.13,1.15,0,1.15,0v-.22h-.01Z"/>
  <path class="st4" d="M78.29,68.87c.04.16.03.18-.1.18-.24.02-.48.05-.71.02-.52-.06-.75-.32-.79-.88,0-.15,0-.3.02-.44.06-.35.29-.58.63-.6.3-.02.6,0,.89.02.08,0,.08.02.05.17-.15-.01-.3-.03-.45-.04h-.42c-.32.03-.5.21-.54.54-.02.15-.02.31,0,.47.05.34.24.54.56.57.24.03.48,0,.72,0,.04,0,.08-.01.13-.02"/>
  <path class="st4" d="M82.41,67.18c.52,0,.71.2.72.53h0c0,.34-.19.66-.72.66h-.69v.68h-.21v-1.87h.9ZM82.91,67.71c0-.21-.11-.38-.5-.38h-.69v.83h.69c.39,0,.5-.23.5-.44h0Z"/>
  <path class="st4" d="M80.84,67.99v1.09h-.22v-.27c-.09.15-.37.3-.73.3-.53,0-.92-.41-.92-1.01s.32-.99.88-.99c.34,0,.88,0,.95.2l-.11.13c-.24-.08-.54-.11-.83-.09-.41.02-.66.23-.67.75,0,.52.29.78.72.78.46,0,.71-.26.71-.65h-.67v-.24h.89Z"/>
  <path class="st4" d="M80.48,67.14s.34.03.35.12c.01.09-.05.22-.17.17-.12-.05-.4-.17-.4-.17l.23-.12h-.01Z"/>
  <line class="st1" x1="75.56" y1="68.16" x2="76.23" y2="68.16"/>
</svg>