<svg xmlns="http://www.w3.org/2000/svg" width="32.828" height="32.828" viewBox="0 0 32.828 32.828">
  <path id="download_25dp_5F6368_FILL0_wght200_GRAD0_opsz24" d="M216.414-735.2l-8.3-8.3,1.66-1.687,5.465,5.465V-760h2.345v20.283l5.465-5.465,1.66,1.687Zm-12.626,8.026a3.669,3.669,0,0,1-2.7-1.084,3.669,3.669,0,0,1-1.084-2.7v-5.682h2.345v5.682a1.379,1.379,0,0,0,.451.992,1.379,1.379,0,0,0,.992.451H229.04a1.38,1.38,0,0,0,.992-.451,1.379,1.379,0,0,0,.451-.992v-5.682h2.345v5.682a3.669,3.669,0,0,1-1.084,2.7,3.669,3.669,0,0,1-2.7,1.084Z" transform="translate(-200 760)" fill="#b07f49"/>
</svg>
