<svg xmlns="http://www.w3.org/2000/svg" width="64" height="64" viewBox="0 0 64 64">
  <g id="Groupe_22" data-name="Groupe 22" transform="translate(-177.387 -697.387)">
    <circle id="Ellipse_16" data-name="Ellipse 16" cx="32" cy="32" r="32" transform="translate(177.387 697.387)" fill="#0f1c15"/>
    <path id="library_books_25dp_5F6368_FILL0_wght200_GRAD0_opsz24" d="M152.456-819.879h6.67V-821.8h-6.67Zm0-5.749H165.8v-1.916h-13.34Zm0-5.749H165.8v-1.916h-13.34Zm-3.611,18.2a3,3,0,0,1-2.209-.886,3,3,0,0,1-.886-2.209V-836.9a3,3,0,0,1,.886-2.21,3,3,0,0,1,2.209-.886h20.637a3,3,0,0,1,2.21.886,3,3,0,0,1,.886,2.21v20.637a3,3,0,0,1-.886,2.209,3,3,0,0,1-2.21.886Zm0-1.916h20.637a1.127,1.127,0,0,0,.811-.369,1.127,1.127,0,0,0,.368-.811V-836.9a1.127,1.127,0,0,0-.368-.811,1.127,1.127,0,0,0-.811-.369H148.845a1.127,1.127,0,0,0-.811.369,1.127,1.127,0,0,0-.368.811v20.637a1.127,1.127,0,0,0,.368.811A1.127,1.127,0,0,0,148.845-815.088Zm-5.749,7.665a3,3,0,0,1-2.209-.886,3,3,0,0,1-.886-2.209v-22.553h1.916v22.553a1.127,1.127,0,0,0,.368.811,1.127,1.127,0,0,0,.811.369h22.553v1.916Zm4.569-30.661v0Z" transform="translate(53.244 1553.099)" fill="#b07f49"/>
  </g>
</svg>
