<svg xmlns="http://www.w3.org/2000/svg" xmlns:xlink="http://www.w3.org/1999/xlink" width="76.751" height="118.491" viewBox="0 0 76.751 118.491">
  <defs>
    <clipPath id="clip-path">
      <rect id="Rectangle_66" data-name="Rectangle 66" width="76.751" height="118.491" fill="none"/>
    </clipPath>
  </defs>
  <g id="Groupe_38" data-name="Groupe 38" transform="translate(0 0)">
    <g id="Groupe_37" data-name="Groupe 37" transform="translate(0 0)" clip-path="url(#clip-path)">
      <path id="Tracé_37" data-name="Tracé 37" d="M5.3,3.694,24.768,30.757c1.208,1.747-.122,4.616-2.927,6.319-3.044,1.849-6.436,1.5-7.142-.729L3.951,4.444A14.08,14.08,0,0,1,2.938,1.559L2.329,1.3l-.078-.023s-.12-.073-.3-.174L6.88,38.381a13.778,13.778,0,0,0,20.4,10.209l2.047-1.148a13.774,13.774,0,0,0,2.411-22.314L7.258,3.384,4.128,2.061c.331.422.708.932,1.174,1.633" transform="translate(3.121 1.768)" fill="#131e17"/>
      <path id="Tracé_38" data-name="Tracé 38" d="M41.464,53.065c-4.343-5.252-.31-6.5.849-16.909-3.21-22.785-24.78-8.785-24.78-8.785C-9.694,45.585,2.484,71.3,4.14,76.616s3.059,6.817,2.937,1.44C4.686,51.391,18.6,43.21,25.305,40.432a1.9,1.9,0,0,1,2.612,1.987c-1.6,13.563,7.97,18.362,17.45,22.525,10.186,4.473,2.026,12.188,2.026,12.188l6.035-4.278c6.033-4.281-7.621-14.537-11.964-19.788" transform="translate(0 37.071)" fill="#131e17"/>
      <path id="Tracé_39" data-name="Tracé 39" d="M35.541,16.549l-3.026-1.588L19.9,8.78l-.06-.341A46.483,46.483,0,0,0,15.628,6.2C13.235,5.08,4.049.588,4.049.588A3.228,3.228,0,0,0,2.942,0c-.357.159-1.5,1.643-1.206,2.528.245.13.458.25.625.344l-.2-1.51A.47.47,0,0,1,2.939.948L7.673,5.153l6.673,2.815,4.695,2.1.3-.2,13.62,6.7,2.289,1.133c.036-.206.076-.414.107-.6a5.751,5.751,0,0,1,.185-.555" transform="translate(2.708 -0.001)" fill="#131e17"/>
      <path id="Tracé_40" data-name="Tracé 40" d="M2.341,1.581l1.187.5C2.627.94,2.219.8,2.341,1.581" transform="translate(3.72 1.746)" fill="#131e17"/>
      <path id="Tracé_41" data-name="Tracé 41" d="M20.979,10.471l15.7,8.3s-.01.128.4.367,2.145,1.265,2.145,1.265a1.016,1.016,0,0,1,.289.453,15.14,15.14,0,0,0,.739,5.221c.583,1.784,1.679.958,1.679.958a2.714,2.714,0,0,0,1.146-2.286,5.043,5.043,0,0,0-.294-2.586,4.451,4.451,0,0,0-2.32-2.544c-1.836-.862-2.606-1.232-2.606-1.232a2.144,2.144,0,0,0-.732-.193.257.257,0,0,0-.24.026L21.367,9.789a1.188,1.188,0,0,1-.388.682" transform="translate(33.645 15.698)" fill="#131e17"/>
      <path id="Tracé_42" data-name="Tracé 42" d="M1.873.852l.2,1.51.3.174.078.026.609.258c-.125-.786.284-.643,1.187.5L7.385,4.643,2.651.438a.47.47,0,0,0-.779.414" transform="translate(2.996 0.509)" fill="#131e17"/>
      <path id="Tracé_43" data-name="Tracé 43" d="M31.455,19.726c.026-.263-.1-.526-.513-.75,1.429-.492,1.583-.935,1.583-.935s2.013,1.823,2.752-.857a6.414,6.414,0,0,0-1.125-4.963s.07-6.049-4.851-7.91c-3.033-1.14-4.887-.755-6.525-.005a14.307,14.307,0,0,0-5.038,3.843A16.328,16.328,0,0,0,16.53,9.787s-1.052-1.242-1.841,1l9.394,4.932Z" transform="translate(23.557 5.762)" fill="#131e17"/>
      <path id="Tracé_44" data-name="Tracé 44" d="M15.155,14.493c1.13,2.07,1.554,3.174,6.663,5.012a6.164,6.164,0,0,0,7.007-2.028l.044-.062c1.294-1.232,1.229-1.258,1.961-1.633a3.018,3.018,0,0,0,.706-.516l-6.754-3.572L14.869,6.8c-.4,2.25-.945,5.442.286,7.694" transform="translate(23.089 10.903)" fill="#131e17"/>
      <path id="Tracé_45" data-name="Tracé 45" d="M31.245,15.977a1.188,1.188,0,0,0,.388-.682l-7.371-4.007L14.867,6.356c-.062.177-.125.331-.185.557-.031.185-.068.393-.1.6L24.49,12.4Z" transform="translate(23.379 10.193)" fill="#131e17"/>
    </g>
  </g>
</svg>
