<?xml version="1.0" encoding="UTF-8"?>
<svg id="Calque_1" xmlns="http://www.w3.org/2000/svg" version="1.1" viewBox="0 0 86.1 70.2">
  <!-- Generator: Adobe Illustrator 29.1.0, SVG Export Plug-In . SVG Version: 2.1.0 Build 142)  -->
  <defs>
    <style>
      .st0 {
        fill: #aa8053;
      }

      .st1 {
        fill: #3d3c3b;
      }

      .st2 {
        fill: #fff;
      }

      .st3 {
        fill: #f9f3ed;
      }
    </style>
  </defs>
  <path class="st2" d="M80.9,47.6c0-.3,0-.6.2-.9.1-.3.3-.5.5-.8s.5-.4.8-.5.6-.2.9-.2.6,0,.9.2c.3.1.5.3.8.5s.4.5.5.8c.1.3.2.6.2.9s0,.6-.2.9-.3.5-.5.7c-.2.2-.5.4-.8.5s-.6.2-.9.2-.6,0-.9-.2-.5-.3-.8-.5-.4-.5-.5-.7-.2-.6-.2-.9ZM81.3,47.6c0,.3,0,.5.2.8,0,.2.2.5.4.6s.4.3.6.4.5.2.8.2.5,0,.8-.2c.2,0,.4-.2.6-.4s.3-.4.4-.6c0-.2.2-.5.2-.8s0-.5-.2-.8c0-.2-.2-.5-.4-.6s-.4-.3-.6-.4-.5-.2-.8-.2-.5,0-.8.2c-.2,0-.4.2-.6.4s-.3.4-.4.6c0,.2-.2.5-.2.8ZM82.3,46.3h.9c.1,0,.2,0,.4,0,.1,0,.2,0,.3.1,0,0,.2.1.2.2,0,0,0,.2,0,.4s0,.3-.2.5c-.1.1-.3.2-.4.2l.7,1.2h-.6l-.6-1.1h-.3v1.1h-.5v-2.7h0ZM83.2,47.5c.1,0,.3,0,.4,0s.2-.2.2-.3,0-.2-.2-.3-.2,0-.4,0h-.4v.8s.4,0,.4,0Z"/>
  <g>
    <path class="st3" d="M18.7,3.6l-6.1,26.9h-5.9L18,3.6h.7ZM12,23.1h17.2v.8H12v-.8ZM24,3.6l11.4,26.9h-6L18,3.6h6Z"/>
    <path class="st3" d="M42.9,11.9v18.7h-5.6V11.9h5.6ZM42.9,15.3v-.8l14.5-2.7v5.6l-14.5-2.1Z"/>
    <path class="st3" d="M62.3,29.9c-.8-.4-1.5-1.2-2-2.4-.5-1.2-.9-3.3-1-6.2,0-.7,0-1.5,0-2.2v-7.3l5.1-5.6h.8v24.3c-1.1,0-2.1-.2-2.9-.6ZM78.2,11.9v.8h-13.1v-.8h13.1ZM65.2,30l13.1-5.6v6.2h-13.1s0-.6,0-.6Z"/>
  </g>
  <g>
    <path class="st3" d="M9.4,52c-1.8-1.7-2.6-4.3-2.6-8s.9-6.3,2.6-8c1.7-1.7,4.4-2.5,8-2.5h9.8v4.4l-9.8-3.8c-2,0-3.5.8-4.5,2.3-1,1.5-1.4,4.1-1.4,7.6s.3,4.6.9,6.1,1.4,2.6,2.4,3.2c.7.3,1.4.5,2.2.6s2,0,3.6,0c1,0,1.8,0,2.4,0v-8.8h4.3v9.4h-9.8c-3.6,0-6.2-.8-8-2.5h0Z"/>
    <path class="st3" d="M31.4,52.8c-1.7-1.3-2.5-3.3-2.5-6s.9-4.4,2.6-5.5c1.7-1.1,4.3-1.7,7.6-1.7s5.9.6,7.7,1.7,2.6,3,2.6,5.5-.8,4.6-2.5,6c-1.7,1.3-4.2,2-7.7,2s-6-.7-7.7-2ZM34.8,41.9c-1,1.1-1.5,2.8-1.5,5s.6,4.9,1.8,5.9c1.2,1,2.5,1.5,4.1,1.5s2.9-.5,4.1-1.5c1.2-1,1.8-3,1.8-5.9s-.5-3.8-1.5-5c-1-1.1-2.5-1.7-4.3-1.7s-3.3.6-4.3,1.7c0,0,0,0,0,0Z"/>
    <path class="st3" d="M53.7,54.3c-.5-.2-1-.6-1.4-1.1-.4-.5-.7-1.4-.9-2.7-.2-1.5-.4-3.1-.4-4.8v-12.1h4.6v21.1c-.7,0-1.4,0-1.9-.3h0ZM55.5,54h5.5v.6h-5.5v-.6Z"/>
    <path class="st3" d="M77.4,35.1c-1.1-.6-2.3-.9-3.6-.9h-.3c-1.5,0-2.8.2-4.1.6-1.2.5-1.8,1.5-1.8,3v16.7h-4.4v-16.7c0-1.8,1-3,3-3.6s4.5-.8,7.5-.7c1.3,0,2.6.2,3.8.4s2.2.4,3,.6v2.9c-1-1-2.1-1.8-3.2-2.4h0ZM78.4,39.9v.6h-12.2v-.6h12.2Z"/>
  </g>
  <g>
    <path class="st0" d="M59.9,46.2c.2-.3.5-.5.7-.8s.6-.5.9-.7c.3-.2.6-.4,1-.5.3-.2.7-.2,1.1-.2.3,0,.6,0,.9.1s.5.3.7.5c.2.2.3.5.4.9s0,.8,0,1.3c0,.3,0,.6-.2.9,0,.3-.2.6-.2.8,0,.3-.2.5-.3.7,0,.2-.2.4-.3.5-.2.2-.4.4-.5.4-.2,0-.3,0-.4,0s-.1-.2-.1-.3,0-.3.3-.4c.2,0,.3-.2.5-.4.2-.2.3-.4.4-.6s.2-.4.3-.7.2-.5.2-.7c0-.4,0-.8,0-1.1,0-.3-.2-.6-.4-.8s-.4-.3-.7-.4c-.3,0-.5-.1-.8-.1-.3,0-.7.1-1,.2s-.6.3-.9.5c-.3.2-.5.5-.8.7s-.5.5-.7.8c-.4.5-.8,1-1.2,1.7s-.8,1.3-1.2,2.1-.7,1.5-1,2.3c-.3.8-.5,1.6-.7,2.4s-.3,1.6-.3,2.4c0,.8,0,1.5.3,2.2.1.4.3.7.4.9.2.3.4.5.6.6.2.2.4.3.7.4s.5.1.8.1c.3,0,.7,0,1-.1s.7-.2,1.1-.4c.4-.2.7-.4,1.1-.6s.7-.5,1-.7c.6-.5,1.2-1,1.7-1.5.6-.5,1.1-1.1,1.6-1.6.6-.7,1.1-1.3,1.6-1.9.5-.6.8-1.1,1.1-1.6,0-.1.2-.2.2-.2,0,0,.1,0,.2,0,0,0,0,.1,0,.2,0,0,0,.2-.2.3-.4.5-.8,1.1-1.2,1.7-.4.6-.9,1.2-1.5,1.8-.5.6-1.1,1.2-1.7,1.8-.6.6-1.2,1.1-1.8,1.6-.3.2-.6.5-1,.7-.3.2-.7.4-1.1.5s-.7.3-1.1.3-.7.1-1.1.1c-.6,0-1.2-.1-1.7-.4-.5-.3-1-.7-1.3-1.3-.3-.5-.5-1-.5-1.5s0-1.2,0-1.8.2-1.3.4-2c.2-.7.4-1.4.7-2.1s.6-1.4.9-2.1c.3-.7.7-1.3,1-1.9.4-.6.7-1.2,1.1-1.7.3-.5.7-1,1-1.3h0Z"/>
    <path class="st0" d="M69.9,52.9c0,.1,0,.3-.2.5s-.2.5-.3.7-.2.5-.3.8c0,.2-.2.5-.2.6,0,.1,0,.2,0,.2,0,0,0,0,.1,0s0,0,.2,0,.1,0,.2-.1c.2-.1.3-.3.5-.5.2-.2.3-.4.5-.7.1-.2.3-.4.4-.6.1-.2.2-.3.2-.3.1,0,.2-.1.3-.2s.2,0,.3,0,.2.1.2.2c0,0,0,.2,0,.3-.3.5-.4,1-.4,1.3s.1.5.3.6c.2,0,.3,0,.5,0,.2,0,.4-.2.6-.3.2-.1.4-.3.6-.5.2-.2.4-.3.6-.5.2-.2.3-.4.5-.5s.3-.3.4-.5c0,0,.1-.2.2-.2,0,0,.2,0,.2,0,0,0,0,0,0,.2s0,.2-.2.3c-.2.3-.5.5-.7.8-.3.3-.6.6-.9.8-.3.3-.7.5-1,.6-.3.2-.7.2-1.1.2-.2,0-.4,0-.6-.2s-.2-.2-.3-.3,0-.3,0-.5c0-.2,0-.3.2-.5-.2.2-.3.4-.5.6-.2.2-.3.4-.5.5-.2.1-.4.2-.6.3-.2,0-.4,0-.6,0-.1,0-.2-.2-.3-.3s-.1-.2-.1-.4,0-.3,0-.4c0-.1,0-.3,0-.4,0-.2.1-.4.2-.7,0-.2.2-.4.2-.6,0-.2.2-.4.2-.5s.2-.3.2-.4c0-.1.2-.2.3-.3.1,0,.2,0,.3,0,0,0,.2.1.2.2,0,.1,0,.3,0,.4h0Z"/>
    <path class="st0" d="M78.1,54.8c-.2.4-.5.7-.8.9s-.5.3-.8.4c-.2,0-.4,0-.6,0-.1,0-.2-.2-.2-.3,0-.1.2-.3.4-.5.2-.2.6-.4,1.2-.6,0,0,0-.2.1-.3s0-.3,0-.4,0-.3,0-.4,0-.2,0-.3-.1,0-.2,0c0,0-.2,0-.4.2-.2.2-.4.4-.7.7-.2.3-.5.6-.7,1-.2.4-.5.8-.7,1.2-.2.4-.4.9-.6,1.3-.2.5-.3.9-.4,1.4-.1.5-.2.9-.2,1.3,0,.5,0,1,.2,1.3s.4.7.8,1c.1,0,.2.2.2.3s0,.2-.1.2-.2,0-.3,0c-.1,0-.3-.1-.4-.3-.2-.2-.4-.6-.5-1s-.2-.9-.2-1.5c0-.6,0-1.3.2-2,0-.8.2-1.5.4-2.3s.4-1.5.7-2.2c.3-.7.6-1.4.9-1.9,0-.1.2-.2.3-.3s.2,0,.3,0c0,0,.2,0,.2.2s0,.2,0,.3c-.2.3-.4.8-.7,1.3s-.5,1.2-.8,1.8c0,0,.1-.2.2-.4s.2-.3.3-.6c.1-.2.3-.4.4-.6s.3-.4.5-.6c.2-.2.4-.3.6-.5s.4-.2.7-.2c.4,0,.7,0,.8.4s0,.8-.2,1.3c.5-.2,1-.3,1.4-.4.5-.1.9-.3,1.3-.4.2,0,.3,0,.3,0s.1,0,.1.2c0,0,0,.1,0,.2s0,.1-.2.1c-.2,0-.5.1-.7.2-.3,0-.5.1-.8.2s-.6.2-.9.2-.6.2-.8.3h0s0,0,0,0Z"/>
  </g>
  <g>
    <path class="st3" d="M33,1.3c-.4-.2-.8-.3-1.2-.3h0c-.5,0-1,0-1.4.2s-.6.5-.6,1v5.8h-1.5V2.3c0-.6.4-1,1-1.2.7-.2,1.5-.3,2.6-.2.5,0,.9,0,1.3.1.4,0,.8.1,1,.2v1c-.4-.4-.7-.6-1.1-.8h0ZM33.3,3v.2h-4.2v-.2h4.2Z"/>
    <path class="st3" d="M36.1,3v5h-1.5V3h1.5ZM36.1,3.9v-.2l3.9-.7v1.5l-3.9-.6h0Z"/>
    <path class="st3" d="M43.7,7.8v.2h-3.2v-.2h3.2ZM42.9,3v5h-1.5V3h1.5ZM41.6,2.1c-.1-.1-.2-.3-.2-.6s0-.5.2-.6c.1-.1.3-.2.6-.2s.4,0,.6.2.2.3.2.6,0,.5-.2.6c-.1.1-.3.2-.6.2s-.4,0-.6-.2Z"/>
    <path class="st3" d="M49.6,6.9v1.1h-1.8c-1.2,0-2.1-.2-2.7-.7-.6-.4-.9-1.1-.9-2s.1-1.1.4-1.4.6-.6,1.1-.8,1.2-.2,2-.2h1.8v1.1l-1.8-.9c-.5,0-.8,0-1.1.2s-.5.4-.7.7c-.2.3-.2.8-.2,1.3s0,1.1.2,1.5c.2.4.4.6.7.8.3.1.7.2,1.1.2l1.8-.9h0Z"/>
    <path class="st3" d="M54.1,5.3c-.6,0-1,.2-1.4.4-.4.2-.6.4-.7.7,0,0,0,.1,0,.2,0,.3.2.6.5.7.3.2.7.3,1.1.3s1,0,1.7.1h.6v.2h-.9c-.9,0-1.7,0-2.3,0s-1.2-.2-1.6-.3c-.5-.2-.7-.5-.7-.8s.3-.8.9-1c.6-.3,1.3-.5,2.2-.6s1.7-.2,2.5-.2v.2c-.6,0-1.2,0-1.7.2ZM51.8,3c.4,0,.9-.1,1.3-.1,1.1,0,2,0,2.9.2.8.2,1.3.6,1.3,1.2v3.7h-1.5v-3.7c0-.4-.1-.7-.4-.8-.3-.2-.6-.3-1-.4-.4,0-.8,0-1.2,0-.3,0-.5,0-.8.2-.3.1-.5.3-.8.5-.3.2-.5.4-.8.5v-1.1c.3,0,.6-.1,1-.2h0Z"/>
  </g>
  <path class="st1" d="M3.5,69s-.3,0-.4,0c0-.2.2-1.4-.2-1.6s-.8,0-.8,0v1.7s0,.1-.3,0v-1.8s-.6,0-.9,0v1.6s0,.1-.3,0v-1.8c0,0,0-.2.1-.2.3,0,.8-.1,1.5,0,.7,0,1.2.2,1.2.8s0,1.3,0,1.3"/>
  <path class="st1" d="M4.5,67s.3,0,.4,0-.2,1.4.2,1.6.8,0,.8,0v-1.7s0-.1.3,0v1.8s.6,0,.9,0v-1.6s0-.1.3,0v1.8c0,0,0,.2-.1.2-.3,0-.8.1-1.5,0-.7,0-1.2-.2-1.2-.8s0-1.3,0-1.3"/>
  <path class="st1" d="M11,69s-.3,0-.4,0c0-.2.2-1.4-.2-1.6s-.8,0-.8,0v1.7s0,.1-.3,0v-1.8s-.6,0-.9,0v1.6s0,.1-.3,0v-1.8c0,0,0-.2.1-.2.3,0,.8-.1,1.5,0,.7,0,1.2.2,1.2.8s0,1.3,0,1.3"/>
  <path class="st1" d="M12,67s.3,0,.4,0c0,.2-.2,1.4.2,1.6s.8,0,.8,0v-1.7s0-.1.3,0v1.8s.6,0,.9,0v-1.6s0-.1.3,0v1.8c0,0,0,.2-.1.2-.3,0-.8.1-1.5,0-.7,0-1.2-.2-1.2-.8s0-1.3,0-1.3"/>
  <path class="st1" d="M18.6,69s-.3,0-.4,0c0-.2.2-1.4-.2-1.6s-.8,0-.8,0v1.7s0,.1-.3,0v-1.8s-.6,0-.9,0v1.6s0,.1-.3,0v-1.8c0,0,0-.2.1-.2.3,0,.8-.1,1.5,0,.7,0,1.2.2,1.2.8s0,1.3,0,1.3"/>
  <path class="st1" d="M19.6,67s.3,0,.4,0c0,.2-.2,1.4.2,1.6s.8,0,.8,0v-1.7s0-.1.3,0v1.8s.6,0,.9,0v-1.6s0-.1.3,0v1.8c0,0,0,.2-.1.2-.3,0-.8.1-1.5,0-.7,0-1.2-.2-1.2-.8s0-1.3,0-1.3"/>
  <path class="st1" d="M26.1,69s-.3,0-.4,0c0-.2.2-1.4-.2-1.6s-.8,0-.8,0v1.7s0,.1-.3,0v-1.8s-.6,0-.9,0v1.6s0,.1-.3,0v-1.8c0,0,0-.2.1-.2.3,0,.8-.1,1.5,0,.7,0,1.2.2,1.2.8s0,1.3,0,1.3"/>
  <g>
    <path class="st1" d="M27.2,67s.3,0,.4,0-.2,1.4.2,1.6.8,0,.8,0v-1.7s0-.1.3,0v1.8s.6,0,.9,0v-1.6s0-.1.3,0v1.8c0,0,0,.2-.1.2-.3,0-.8.1-1.5,0-.7,0-1.2-.2-1.2-.8s0-1.3,0-1.3"/>
    <path class="st1" d="M33.7,69s-.3,0-.4,0c0-.2.2-1.4-.2-1.6s-.8,0-.8,0v1.7s0,.1-.3,0v-1.8s-.6,0-.9,0v1.6s0,.1-.3,0v-1.8c0,0,0-.2.1-.2.3,0,.8-.1,1.5,0,.7,0,1.2.2,1.2.8s0,1.3,0,1.3"/>
    <path class="st1" d="M34.7,67s.3,0,.4,0c0,.2-.2,1.4.2,1.6s.8,0,.8,0v-1.7s0-.1.3,0v1.8s.6,0,.9,0v-1.6s0-.1.3,0v1.8c0,0,0,.2-.1.2-.3,0-.8.1-1.5,0-.7,0-1.2-.2-1.2-.8s0-1.3,0-1.3"/>
    <path class="st1" d="M41.3,69s-.3,0-.4,0c0-.2.2-1.4-.2-1.6s-.8,0-.8,0v1.7s0,.1-.3,0v-1.8s-.6,0-.9,0v1.6s0,.1-.3,0v-1.8c0,0,0-.2.1-.2.3,0,.8-.1,1.5,0,.7,0,1.2.2,1.2.8s0,1.3,0,1.3"/>
    <path class="st1" d="M42.3,67s.3,0,.4,0c0,.2-.2,1.4.2,1.6s.8,0,.8,0v-1.7s0-.1.3,0v1.8s.6,0,.9,0v-1.6s0-.1.3,0v1.8c0,0,0,.2-.1.2-.3,0-.8.1-1.5,0-.7,0-1.2-.2-1.2-.8s0-1.3,0-1.3"/>
    <path class="st1" d="M48.8,69s-.3,0-.4,0c0-.2.2-1.4-.2-1.6s-.8,0-.8,0v1.7s0,.1-.3,0v-1.8s-.6,0-.9,0v1.6s0,.1-.3,0v-1.8c0,0,0-.2.1-.2.3,0,.8-.1,1.5,0,.7,0,1.2.2,1.2.8s0,1.3,0,1.3"/>
  </g>
  <g>
    <path class="st3" d="M50.2,68.5v-4.5h.2v1.8c.3-.4.7-.6,1.2-.6.9,0,1.5.7,1.5,1.7s-.6,1.7-1.5,1.7-1-.3-1.2-.6v.5h-.2ZM51.6,68.4c.8,0,1.2-.7,1.2-1.5s-.4-1.5-1.2-1.5-1,.3-1.2.7v1.8c.2.3.7.7,1.2.7Z"/>
    <path class="st3" d="M53.8,69.6s.2,0,.3,0c.2,0,.4,0,.5-.4l.3-.7-1.4-3.3h.2l1.3,3,1.3-3h.2l-1.7,4c-.2.4-.4.5-.7.5s-.2,0-.3,0c0,0,0-.2,0-.2Z"/>
  </g>
  <polygon class="st3" points="59.6 65.1 61.1 67.4 61.2 67.4 62.7 65.1 63.1 65.1 63.1 68.5 62.7 68.5 62.7 65.7 61.4 67.8 61 67.8 59.7 65.7 59.7 68.5 59.3 68.5 59.3 65.1 59.6 65.1"/>
  <polygon class="st3" points="68 68.5 68.3 68.5 68.3 65.7 70.9 68.5 71.2 68.5 71.2 65.1 70.8 65.1 70.8 67.9 68.3 65.1 68 65.1 68 68.5"/>
  <path class="st3" d="M67.1,68s-1,.3-2,0c-.9-.3-1.1-1.8-.5-2.5.6-.7,2.5-.2,2.5-.2v-.4s-1-.2-1.5-.1c-.4,0-1.5,0-1.6,1.3-.1,1.2.3,1.9,1.1,2.2.8.2,2,0,2,0v-.4h0Z"/>
  <path class="st3" d="M77.1,68.1c0,.3,0,.3-.2.3-.4,0-.9,0-1.3,0-.9-.1-1.3-.6-1.4-1.6,0-.3,0-.5,0-.8.1-.6.5-1,1.1-1.1.5,0,1.1,0,1.6,0,.1,0,.1,0,0,.3-.3,0-.5,0-.8,0h-.7c-.6,0-.9.4-1,1,0,.3,0,.5,0,.8,0,.6.4,1,1,1,.4,0,.9,0,1.3,0s.1,0,.2,0"/>
  <path class="st3" d="M84.4,65.1c.9,0,1.3.4,1.3.9h0c0,.6-.3,1.2-1.3,1.2h-1.2v1.2h-.4v-3.3h1.6ZM85.3,66.1c0-.4-.2-.7-.9-.7h-1.2v1.5h1.2c.7,0,.9-.4.9-.8h0Z"/>
  <path class="st3" d="M81.6,66.6v1.9h-.4v-.5c-.2.3-.7.5-1.3.5-.9,0-1.6-.7-1.6-1.8s.6-1.8,1.6-1.8,1.6,0,1.7.4l-.2.2c-.4-.1-1-.2-1.5-.2-.7,0-1.2.4-1.2,1.3,0,.9.5,1.4,1.3,1.4s1.3-.5,1.3-1.2h-1.2v-.4h1.6Z"/>
  <path class="st3" d="M81.4,65.5s.5,0,.6.2c0,.1,0,.3-.3.3-.2,0-.6-.3-.6-.3l.4-.2h0Z"/>
  <rect class="st3" x="72.2" y="66.6" width="1.2" height=".5"/>
</svg>