<?xml version="1.0" encoding="UTF-8"?>
<svg id="Calque_1" xmlns="http://www.w3.org/2000/svg" version="1.1" viewBox="0 0 72.74 84.46">
  <!-- Generator: Adobe Illustrator 29.1.0, SVG Export Plug-In . SVG Version: 2.1.0 Build 142)  -->
  <defs>
    <style>
      .st0 {
        fill: #9c9b9b;
      }
    </style>
  </defs>
  <g>
    <polygon class="st0" points="14.69 24.4 20.52 33.31 20.83 33.31 26.65 24.4 27.93 24.4 27.93 37.73 26.54 37.73 26.54 26.98 21.34 34.79 20.05 34.79 14.87 26.96 14.87 37.72 13.53 37.72 13.55 24.4 14.69 24.4"/>
    <polygon class="st0" points="46.6 37.56 47.92 37.56 47.92 26.7 57.72 37.56 58.82 37.56 58.82 24.4 57.35 24.4 57.35 35.32 47.77 24.4 46.63 24.4 46.6 37.56"/>
    <path class="st0" d="M43.27,35.83s-3.91,1.26-7.5.21c-3.46-1-4.08-6.97-1.92-9.45,2.46-2.83,9.42-.72,9.42-.72v-1.4s-3.99-.63-5.64-.45c-1.65.18-5.71.36-6.21,4.98-.5,4.62,1.15,7.48,4.14,8.34s7.76-.02,7.76-.02l-.04-1.5Z"/>
    <path class="st0" d="M61.41,56.65H11.34V6.27h50.07v50.39ZM12.3,55.69h48.14V7.23H12.3v48.46Z"/>
  </g>
  <g>
    <path class="st0" d="M9.17,67.13v-.63c0-.89.58-1.53,1.77-1.53,1.2,0,1.78.64,1.78,1.53v.63c0,.89-.58,1.53-1.78,1.53s-1.77-.64-1.77-1.53ZM12.2,67.15v-.68c0-.66-.42-1.14-1.27-1.14s-1.25.47-1.25,1.14v.68c0,.66.43,1.14,1.25,1.14s1.27-.48,1.27-1.14Z"/>
    <path class="st0" d="M60.12,67.01v-.63c0-.89.58-1.53,1.77-1.53,1.2,0,1.78.64,1.78,1.53v.63c0,.89-.58,1.53-1.78,1.53s-1.77-.64-1.77-1.53ZM63.15,67.03v-.68c0-.66-.42-1.14-1.27-1.14s-1.25.47-1.25,1.14v.68c0,.66.43,1.14,1.25,1.14s1.27-.48,1.27-1.14Z"/>
    <path class="st0" d="M8.46,68.12c.08.39.08.41-.24.44-.56.04-1.13.12-1.69.05-1.23-.14-1.77-.77-1.86-2.07-.02-.35,0-.71.06-1.05.14-.83.69-1.38,1.49-1.42.7-.04,1.41.02,2.11.05.2,0,.2.05.11.39-.35-.03-.7-.07-1.06-.09-.33-.01-.66-.01-.99.02-.75.07-1.19.5-1.29,1.28-.05.36-.04.74.01,1.1.12.79.56,1.27,1.32,1.35.56.06,1.14,0,1.71-.02.1,0,.19-.03.3-.05Z"/>
    <path class="st0" d="M15.9,65.02c.16,0,.32.04.46.11.14.08.27.18.38.31s.19.28.26.46c.06.18.09.36.09.56v2.09h-.45v-2.09c0-.12-.02-.24-.06-.34s-.09-.2-.16-.28c-.07-.08-.14-.15-.23-.19-.09-.05-.18-.07-.28-.07h-1.86v2.98h-.45v-3.53h2.3Z"/>
    <path class="st0" d="M38.55,64.96c.16,0,.32.04.46.11.14.08.27.18.38.31s.19.28.26.46c.06.18.09.36.09.56v2.09h-.45v-2.09c0-.12-.02-.24-.06-.34s-.09-.2-.16-.28c-.07-.08-.14-.15-.23-.19-.09-.05-.18-.07-.28-.07h-1.86v2.98h-.45v-3.53h2.3Z"/>
    <path class="st0" d="M66.88,64.99c.16,0,.32.04.46.11.14.08.27.18.38.31s.19.28.26.46c.06.18.09.36.09.56v2.09h-.45v-2.09c0-.12-.02-.24-.06-.34s-.09-.2-.16-.28c-.07-.08-.14-.15-.23-.19-.09-.05-.18-.07-.28-.07h-1.86v2.98h-.45v-3.53h2.3Z"/>
    <path class="st0" d="M17.83,68.15l.17-.37c.24.16.76.36,1.32.36.52,0,1.06-.15,1.06-.6,0-.4-.37-.54-1.03-.68-.9-.18-1.36-.49-1.36-1.02s.49-.89,1.47-.89c.6,0,1.05.13,1.48.31l-.17.34c-.33-.15-.74-.29-1.29-.29-.63,0-.93.19-.93.53,0,.37.32.54,1.07.69.77.16,1.32.41,1.32,1,0,.63-.66.97-1.6.97-.67,0-1.21-.18-1.51-.35Z"/>
    <path class="st0" d="M52.23,68.12l.17-.37c.24.16.76.36,1.32.36.52,0,1.06-.15,1.06-.6,0-.4-.37-.54-1.03-.68-.9-.18-1.36-.49-1.36-1.02s.49-.89,1.47-.89c.6,0,1.05.13,1.48.31l-.17.34c-.33-.15-.74-.29-1.29-.29-.63,0-.93.19-.93.53,0,.37.32.54,1.07.69.77.16,1.32.41,1.32,1,0,.63-.66.97-1.6.97-.67,0-1.21-.18-1.51-.35Z"/>
    <path class="st0" d="M25.32,66.5c0,.09-.03.15-.08.19-.06.03-.11.05-.16.05h-2.74c0,.21.02.4.07.57.05.17.13.32.24.44.11.12.26.22.44.28.18.07.4.1.67.1.19,0,.35-.01.5-.04.15-.03.28-.06.38-.09.11-.03.2-.06.27-.09.07-.03.12-.04.15-.04.02,0,.03,0,.05.01s.03.02.04.04c0,.02.02.04.02.06,0,.03,0,.06,0,.09,0,.02,0,.03,0,.05,0,.02,0,.03-.01.05,0,.01-.01.03-.02.04,0,.01-.02.03-.04.04-.01.01-.06.03-.14.07s-.18.06-.3.09c-.12.03-.27.06-.43.09-.16.03-.34.04-.53.04-.31,0-.59-.04-.83-.12-.24-.08-.44-.2-.6-.35-.16-.16-.29-.35-.37-.58-.08-.23-.13-.5-.13-.8s.04-.55.13-.78c.09-.23.21-.42.37-.58.16-.16.36-.28.59-.37.23-.08.48-.13.77-.13.3,0,.56.04.77.13s.39.2.53.35.24.31.3.5c.06.19.1.39.1.61v.09ZM24.78,66.37c0-.36-.09-.65-.29-.85-.2-.2-.5-.31-.89-.31-.2,0-.38.03-.53.1-.15.06-.28.15-.39.26s-.19.23-.24.37c-.06.14-.09.29-.1.44h2.44Z"/>
    <path class="st0" d="M35.27,66.74c0,.09-.03.15-.08.19-.06.03-.11.05-.16.05h-2.74c0,.21.02.4.07.57.05.17.13.32.24.44.11.12.26.22.44.28.18.07.4.1.67.1.19,0,.35-.01.5-.04.15-.03.28-.06.38-.09.11-.03.2-.06.27-.09.07-.03.12-.04.15-.04.02,0,.03,0,.05.01s.03.02.04.04c0,.02.02.04.02.06,0,.03,0,.06,0,.09,0,.02,0,.03,0,.05,0,.02,0,.03-.01.05,0,.01-.01.03-.02.04,0,.01-.02.03-.04.04-.01.01-.06.03-.14.07s-.18.06-.3.09c-.12.03-.27.06-.43.09-.16.03-.34.04-.53.04-.31,0-.59-.04-.83-.12-.24-.08-.44-.2-.6-.35-.16-.16-.29-.35-.37-.58-.08-.23-.13-.5-.13-.8s.04-.55.13-.78c.09-.23.21-.42.37-.58.16-.16.36-.28.59-.37.23-.08.48-.13.77-.13.3,0,.56.04.77.13s.39.2.53.35.24.31.3.5c.06.19.1.39.1.61v.09ZM34.73,66.6c0-.36-.09-.65-.29-.85-.2-.2-.5-.31-.89-.31-.2,0-.38.03-.53.1-.15.06-.28.15-.39.26s-.19.23-.24.37c-.06.14-.09.29-.1.44h2.44Z"/>
    <path class="st0" d="M51.71,66.53c0,.09-.03.15-.08.19-.06.03-.11.05-.16.05h-2.74c0,.21.02.4.07.57.05.17.13.32.24.44.11.12.26.22.44.28.18.07.4.1.67.1.19,0,.35-.01.5-.04.15-.03.28-.06.38-.09.11-.03.2-.06.27-.09.07-.03.12-.04.15-.04.02,0,.03,0,.05.01s.03.02.04.04c0,.02.02.04.02.06,0,.03,0,.06,0,.09,0,.02,0,.03,0,.05,0,.02,0,.03-.01.05,0,.01-.01.03-.02.04,0,.01-.02.03-.04.04-.01.01-.06.03-.14.07s-.18.06-.3.09c-.12.03-.27.06-.43.09-.16.03-.34.04-.53.04-.31,0-.59-.04-.83-.12-.24-.08-.44-.2-.6-.35-.16-.16-.29-.35-.37-.58-.08-.23-.13-.5-.13-.8s.04-.55.13-.78c.09-.23.21-.42.37-.58.16-.16.36-.28.59-.37.23-.08.48-.13.77-.13.3,0,.56.04.77.13s.39.2.53.35.24.31.3.5c.06.19.1.39.1.61v.09ZM51.17,66.4c0-.36-.09-.65-.29-.85-.2-.2-.5-.31-.89-.31-.2,0-.38.03-.53.1-.15.06-.28.15-.39.26s-.19.23-.24.37c-.06.14-.09.29-.1.44h2.44Z"/>
    <path class="st0" d="M28.4,68.57s0,.03-.01.04c0,.01-.02.02-.04.03-.02,0-.05.01-.08.02-.04,0-.08,0-.14,0-.05,0-.1,0-.13,0-.04,0-.07-.01-.09-.02-.02,0-.04-.02-.04-.03s-.01-.02-.01-.04v-4.76s0-.03.01-.04c0-.01.02-.02.04-.03.02,0,.05-.01.09-.02.04,0,.08,0,.13,0,.06,0,.1,0,.14,0,.04,0,.06,0,.08.02.02,0,.04.02.04.03,0,.01.01.02.01.04v4.76Z"/>
    <path class="st0" d="M26.66,68.59s0,.02-.01.03c0,0-.02.02-.04.02-.02,0-.04,0-.08.01-.03,0-.08,0-.13,0-.05,0-.09,0-.12,0-.03,0-.06,0-.08-.01-.02,0-.03-.01-.04-.02s-.01-.02-.01-.03v-3.52s0-.02.01-.03c0,0,.02-.02.04-.02.02,0,.05-.01.08-.01.03,0,.07,0,.12,0,.05,0,.09,0,.13,0,.03,0,.06,0,.08.01.02,0,.03.01.04.02,0,0,.01.02.01.03v3.52Z"/>
    <path class="st0" d="M26.66,63.87v.62c0,.05-.04.09-.09.09h-.3s-.09-.04-.09-.09v-.62c0-.05.04-.09.09-.09h.3s.09.04.09.09Z"/>
    <path class="st0" d="M59.1,68.59s0,.02-.01.03c0,0-.02.02-.04.02-.02,0-.04,0-.08.01-.03,0-.08,0-.13,0-.05,0-.09,0-.12,0-.03,0-.06,0-.08-.01-.02,0-.03-.01-.04-.02s-.01-.02-.01-.03v-3.52s0-.02.01-.03c0,0,.02-.02.04-.02.02,0,.05-.01.08-.01.03,0,.07,0,.12,0,.05,0,.09,0,.13,0,.03,0,.06,0,.08.01.02,0,.03.01.04.02,0,0,.01.02.01.03v3.52Z"/>
    <path class="st0" d="M59.1,63.87v.62c0,.05-.04.09-.09.09h-.3s-.09-.04-.09-.09v-.62c0-.05.04-.09.09-.09h.3s.09.04.09.09Z"/>
    <path class="st0" d="M57.96,68.17s0-.06,0-.08c0-.02,0-.04-.02-.05,0-.01-.02-.02-.03-.03-.01,0-.02,0-.04,0-.02,0-.05,0-.08.02-.03.01-.07.03-.11.04-.04.02-.09.05-.14.06-.05.01-.18.04-.24.04-.22,0-.39.05-.47-.09-.08-.14-.12-.34-.12-.61v-2.05h1.05s.07-.02.09-.05c.02-.03.04-.08.04-.15,0-.03,0-.13,0-.16,0-.02-.01-.05-.03-.06-.01-.02-.02-.03-.04-.04-.02,0-.03-.01-.05-.01h-1.05v-.86s0-.03-.01-.04c0-.01-.02-.02-.04-.03-.02,0-.04-.02-.08-.02-.03,0-.07,0-.12,0-.05,0-.09,0-.12,0-.03,0-.06.01-.08.02-.02,0-.03.02-.04.03s-.01.03-.01.04v.86h-.35v.46h.35v2.12c0,.2.02.37.06.51s.1.26.18.36c.08.09.19.16.32.21.13.05.29.07.48.07.06,0,.11,0,.17,0,.06,0,.13,0,.18-.02.05-.01.1-.03.14-.04.04-.02.07-.03.09-.05s.04-.05.06-.08c.02-.03.08-.16.06-.3Z"/>
    <path class="st0" d="M47.29,66.03v2.57s-.52,0-.52,0v-.64c-.21.36-.88.71-1.72.71-1.26,0-2.18-.97-2.18-2.39s.76-2.34,2.08-2.34c.81,0,2.08,0,2.26.48l-.27.31c-.57-.18-1.27-.25-1.95-.21-.97.05-1.56.54-1.59,1.78.01,1.22.67,1.84,1.7,1.84,1.09,0,1.67-.62,1.67-1.53h-1.58v-.58s2.09,0,2.09,0Z"/>
    <path class="st0" d="M46.43,64.03s.79.06.83.29-.13.52-.41.4-.95-.41-.95-.41l.53-.28Z"/>
  </g>
  <g>
    <path class="st0" d="M45.56,76.54v-.63c0-.89.58-1.53,1.77-1.53,1.2,0,1.78.64,1.78,1.53v.63c0,.89-.58,1.53-1.78,1.53s-1.77-.64-1.77-1.53ZM48.6,76.56v-.68c0-.66-.42-1.14-1.27-1.14s-1.25.47-1.25,1.14v.68c0,.66.43,1.14,1.25,1.14s1.27-.48,1.27-1.14Z"/>
    <path class="st0" d="M54.02,74.52c.16,0,.31.04.45.11s.26.18.37.31c.11.13.19.28.25.46.06.18.09.36.09.56v2.09h-.44v-2.09c0-.12-.02-.24-.06-.34s-.09-.2-.15-.28c-.06-.08-.14-.15-.23-.19-.09-.05-.18-.07-.27-.07h-1.8v2.98h-.44v-3.53h2.23Z"/>
    <path class="st0" d="M20.89,76.07c0,.09-.03.15-.08.19-.06.03-.11.05-.16.05h-2.74c0,.21.02.4.07.57.05.17.13.32.24.44.11.12.26.22.44.28.18.07.4.1.67.1.19,0,.35-.01.5-.04.15-.03.28-.06.38-.09.11-.03.2-.06.27-.09.07-.03.12-.04.15-.04.02,0,.03,0,.05.01s.03.02.04.04c0,.02.02.04.02.06,0,.03,0,.06,0,.09,0,.02,0,.03,0,.05,0,.02,0,.03-.01.05,0,.01-.01.03-.02.04,0,.01-.02.03-.04.04-.01.01-.06.03-.14.07s-.18.06-.3.09c-.12.03-.27.06-.43.09-.16.03-.34.04-.53.04-.31,0-.59-.04-.83-.12-.24-.08-.44-.2-.6-.35-.16-.16-.29-.35-.37-.58-.08-.23-.13-.5-.13-.8s.04-.55.13-.78c.09-.23.21-.42.37-.58.16-.16.36-.28.59-.37.23-.08.48-.13.77-.13.3,0,.56.04.77.13s.39.2.53.35.24.31.3.5c.06.19.1.39.1.61v.09ZM20.34,75.93c0-.36-.09-.65-.29-.85-.2-.2-.5-.31-.89-.31-.2,0-.38.03-.53.1-.15.06-.28.15-.39.26s-.19.23-.24.37c-.06.14-.09.29-.1.44h2.44Z"/>
    <path class="st0" d="M59.74,76.11c0,.09-.03.15-.08.19-.06.03-.11.05-.16.05h-2.74c0,.21.02.4.07.57.05.17.13.32.24.44.11.12.26.22.44.28.18.07.4.1.67.1.19,0,.35-.01.5-.04.15-.03.28-.06.38-.09.11-.03.2-.06.27-.09.07-.03.12-.04.15-.04.02,0,.03,0,.05.01s.03.02.04.04c0,.02.02.04.02.06,0,.03,0,.06,0,.09,0,.02,0,.03,0,.05,0,.02,0,.03-.01.05,0,.01-.01.03-.02.04,0,.01-.02.03-.04.04-.01.01-.06.03-.14.07s-.18.06-.3.09c-.12.03-.27.06-.43.09-.16.03-.34.04-.53.04-.31,0-.59-.04-.83-.12-.24-.08-.44-.2-.6-.35-.16-.16-.29-.35-.37-.58-.08-.23-.13-.5-.13-.8s.04-.55.13-.78c.09-.23.21-.42.37-.58.16-.16.36-.28.59-.37.23-.08.48-.13.77-.13.3,0,.56.04.77.13s.39.2.53.35.24.31.3.5c.06.19.1.39.1.61v.09ZM59.19,75.97c0-.36-.09-.65-.29-.85-.2-.2-.5-.31-.89-.31-.2,0-.38.03-.53.1-.15.06-.28.15-.39.26s-.19.23-.24.37c-.06.14-.09.29-.1.44h2.44Z"/>
    <path class="st0" d="M26.54,73.58c1.24,0,1.68.48,1.69,1.26h0c0,.8-.44,1.56-1.69,1.56h-1.63v1.6h-.5v-4.41h2.13ZM27.72,74.84c0-.5-.26-.9-1.18-.9h-1.63v1.95h1.63c.93,0,1.18-.54,1.18-1.04h0Z"/>
    <path class="st0" d="M14.51,77.98c-1.01.01-1.49-.39-1.5-1.22h0c0-.82-.05-2.3,1.23-2.28l1.79-.04v-1.2c0-.09.07-.17.16-.17h.14c.09,0,.16.08.16.17v4.73h-1.99ZM13.48,76.67c0,.53.16.98,1.16.96l1.39-.02v-2.67s-1.76-.02-1.76-.02c-.87,0-.79,1.24-.79,1.76h0Z"/>
    <path class="st0" d="M34.98,77.67c0,.05,0,.09-.01.13,0,.03-.03.06-.05.08s-.05.04-.09.05-.09.03-.14.04c-.05.01-.11.02-.17.03-.06,0-.12,0-.17,0-.19,0-.35-.02-.48-.07-.13-.04-.24-.11-.32-.2-.08-.09-.14-.2-.18-.34s-.06-.3-.06-.49v-2.08h-.57s-.07-.02-.09-.05c-.02-.03-.03-.08-.03-.14,0-.03,0-.06,0-.08,0-.02.01-.04.03-.06s.02-.03.04-.03c.02,0,.03-.01.05-.01h.57v-.82s0-.03.01-.04.02-.02.04-.03c.02,0,.05-.01.08-.02.03,0,.07,0,.12,0,.05,0,.09,0,.12,0,.03,0,.06,0,.08.02.02,0,.03.02.04.03,0,.01.01.03.01.04v.82h1.05s.04,0,.05.01c.02,0,.03.02.04.03s.02.04.03.06c0,.02,0,.05,0,.08,0,.06-.01.11-.04.14-.02.03-.05.05-.09.05h-1.05v2.02c0,.25.04.45.12.58.08.13.23.2.45.2.07,0,.13,0,.18-.02s.1-.03.14-.04c.04-.01.08-.03.11-.04.03-.01.06-.02.08-.02.01,0,.03,0,.04,0,.01,0,.02.01.03.03,0,.01.01.03.02.05,0,.02,0,.05,0,.08Z"/>
    <path class="st0" d="M32.97,77.78c-.14-.28-.39-.16-.39-.16,0,0-.12-.07-.11-.57.01-.5.14-1.73-.31-2.13-.36-.32-.66-.62-1.53-.6-.64.01-1.54.02-1.45.44,0,0,.06.33.38.3s1.07-.41,1.79-.09c.71.32.65.99.65.99,0,0-2.89-.37-2.94.9-.05,1.16,1.17,1.49,1.88,1.31s1.07-.53,1.07-.53c0,0,.11-.04.11.09s.28.39.44.41.55-.06.41-.34ZM30.5,77.76c-.69.07-1.55-.82-.76-1.25.89-.49,2.24-.16,2.24-.16l.02.59c-.22.27-.68.73-1.5.82Z"/>
    <g>
      <path class="st0" d="M50.58,78.04s0,.02-.01.03c0,0-.02.02-.04.02-.02,0-.04,0-.08.01-.03,0-.08,0-.13,0-.05,0-.09,0-.12,0-.03,0-.06,0-.08-.01-.02,0-.03-.01-.04-.02s-.01-.02-.01-.03v-3.52s0-.02.01-.03c0,0,.02-.02.04-.02.02,0,.05-.01.08-.01.03,0,.07,0,.12,0,.05,0,.09,0,.13,0,.03,0,.06,0,.08.01.02,0,.03.01.04.02,0,0,.01.02.01.03v3.52Z"/>
      <path class="st0" d="M50.58,73.32v.62c0,.05-.04.09-.09.09h-.3s-.09-.04-.09-.09v-.62c0-.05.04-.09.09-.09h.3s.09.04.09.09Z"/>
    </g>
    <g>
      <path class="st0" d="M38.71,78.04s0,.02-.01.03c0,0-.02.02-.04.02-.02,0-.04,0-.08.01-.03,0-.08,0-.13,0-.05,0-.09,0-.12,0-.03,0-.06,0-.08-.01-.02,0-.03-.01-.04-.02s-.01-.02-.01-.03v-3.52s0-.02.01-.03c0,0,.02-.02.04-.02.02,0,.05-.01.08-.01.03,0,.07,0,.12,0,.05,0,.09,0,.13,0,.03,0,.06,0,.08.01.02,0,.03.01.04.02,0,0,.01.02.01.03v3.52Z"/>
      <path class="st0" d="M38.71,73.32v.62c0,.05-.04.09-.09.09h-.3s-.09-.04-.09-.09v-.62c0-.05.04-.09.09-.09h.3s.09.04.09.09Z"/>
    </g>
    <path class="st0" d="M44.71,78.01s-.54.13-.61-.15.43-2.44-.28-2.76-1.35-.12-1.35-.12v2.98s-.17.22-.53.02v-3.03s-.96-.06-1.6.11v2.86s-.11.24-.5,0v-3.04c0-.14.09-.26.23-.29.44-.11,1.45-.22,2.53-.16,1.13.07,2.15.38,2.15,1.34s-.04,2.22-.04,2.22Z"/>
    <path class="st0" d="M37.69,74.39v.51h-.76c-.4,0-.61.26-.61.76v2.44h-.43v-2.53c0-.79.32-1.19.97-1.19h.84Z"/>
    <rect class="st0" x="35.89" y="74.43" width=".42" height="2.01"/>
  </g>
</svg>